<?xml version="1.0" standalone="no"?>
<!DOCTYPE svg PUBLIC "-//W3C//DTD SVG 20010904//EN"
 "http://www.w3.org/TR/2001/REC-SVG-20010904/DTD/svg10.dtd">
<svg version="1.0" xmlns="http://www.w3.org/2000/svg"
 width="612.000000pt" height="408.000000pt" viewBox="0 0 612.000000 408.000000"
 preserveAspectRatio="xMidYMid meet">

<g transform="translate(0.000000,408.000000) scale(0.100000,-0.100000)"
fill="#000000" stroke="none">
<path d="M641 4064 c0 -11 3 -14 6 -6 3 7 2 16 -1 19 -3 4 -6 -2 -5 -13z"/>
<path d="M730 4040 c0 -25 5 -40 13 -40 6 0 62 18 122 40 l110 39 -122 0 -123
1 0 -40z"/>
<path d="M1112 4067 c-31 -9 -40 -15 -32 -23 12 -12 21 -53 23 -106 1 -29 5
-37 17 -33 8 2 29 7 45 11 17 4 35 10 40 14 6 4 22 10 37 14 19 4 25 11 22 21
-4 9 2 18 17 24 13 5 20 10 16 10 -5 1 1 16 12 35 12 18 21 36 21 40 0 10
-172 5 -218 -7z m133 -107 c-3 -5 -16 -10 -28 -9 -21 0 -21 1 -2 9 28 12 37
12 30 0z"/>
<path d="M1396 4038 c8 -53 6 -50 38 -42 22 5 26 11 26 45 0 38 -1 39 -35 39
l-35 0 6 -42z"/>
<path d="M1566 4072 c-2 -4 -1 -14 3 -21 11 -17 71 -5 71 15 0 15 -65 21 -74
6z"/>
<path d="M1903 4068 c-46 -17 -60 -21 -82 -24 -13 -2 -27 -8 -31 -14 -4 -6
-13 -10 -21 -9 -27 4 -69 -20 -69 -40 0 -11 -3 -26 -6 -35 -5 -12 0 -16 17
-16 12 0 33 -10 46 -22 12 -11 40 -25 60 -29 35 -8 35 -8 -11 -5 -31 3 -44 1
-35 -5 12 -8 12 -11 -1 -20 -12 -9 -11 -10 5 -4 11 3 43 11 70 17 126 26 135
30 135 64 0 17 3 58 6 91 l7 60 -36 -1 c-20 -1 -44 -4 -54 -8z"/>
<path d="M2045 4063 c5 -10 10 -48 13 -85 2 -38 6 -68 7 -68 3 0 263 67 380
98 35 9 52 18 40 20 -11 2 -29 7 -40 12 -42 19 -118 40 -123 35 -4 -3 -1 -15
6 -25 7 -12 8 -20 2 -20 -5 0 -10 5 -10 10 0 6 -7 10 -16 10 -14 0 -14 3 -4
15 11 13 -4 15 -125 15 -127 0 -137 -1 -130 -17z m330 -43 c3 -5 2 -10 -4 -10
-5 0 -13 5 -16 10 -3 6 -2 10 4 10 5 0 13 -4 16 -10z"/>
<path d="M2510 4068 c25 -6 48 -16 52 -22 10 -14 19 -3 9 12 -4 6 -29 14 -57
17 l-49 4 45 -11z"/>
<path d="M3522 4060 c-29 -46 17 -54 58 -10 l28 30 -37 0 c-26 0 -40 -6 -49
-20z"/>
<path d="M990 4022 c-14 -1 -41 -9 -60 -16 -19 -8 -81 -28 -137 -45 -57 -18
-103 -37 -103 -43 0 -9 3 -9 12 0 21 21 26 13 33 -54 l8 -66 30 6 c16 3 34 6
40 6 6 0 3 6 -6 13 -15 10 -10 12 30 11 26 -1 74 8 107 19 63 20 92 37 66 37
-12 0 -12 2 -2 9 9 5 12 26 10 67 -3 56 -4 59 -28 56z"/>
<path d="M1574 3959 c-13 -15 -15 -23 -7 -26 7 -2 10 -10 7 -18 -3 -8 -1 -22
5 -32 9 -16 10 -16 11 5 0 12 6 22 15 22 9 0 12 -6 9 -15 -4 -8 -2 -15 4 -15
11 0 22 34 22 73 0 17 -5 27 -15 27 -8 0 -15 -6 -15 -12 0 -10 -2 -10 -8 0 -7
9 -13 7 -28 -9z"/>
<path d="M2463 3930 c-12 -5 -39 -11 -60 -14 -112 -14 -144 -20 -149 -27 -3
-5 -21 -9 -40 -9 -19 0 -34 -5 -34 -11 0 -6 -7 -9 -15 -6 -8 4 -17 2 -20 -3
-4 -6 -24 -10 -46 -10 -39 0 -40 -1 -37 -32 l3 -33 65 4 c36 2 70 7 76 12 7 5
45 12 85 14 41 3 83 9 94 13 53 23 144 52 208 66 41 9 33 21 -24 34 -58 14
-76 14 -106 2z"/>
<path d="M642 3900 c0 -14 2 -19 5 -12 2 6 2 18 0 25 -3 6 -5 1 -5 -13z"/>
<path d="M1421 3904 c0 -11 3 -14 6 -6 3 7 2 16 -1 19 -3 4 -6 -2 -5 -13z"/>
<path d="M1730 3890 c0 -5 5 -10 10 -10 6 0 10 5 10 10 0 6 -4 10 -10 10 -5 0
-10 -4 -10 -10z"/>
<path d="M2750 3865 c0 -25 4 -35 16 -35 11 0 13 6 9 19 -3 11 -1 23 6 26 8 6
7 10 -2 16 -24 15 -29 10 -29 -26z"/>
<path d="M1700 3863 c0 -5 11 -9 25 -9 14 -1 22 2 19 7 -6 11 -44 12 -44 2z"/>
<path d="M2750 3810 c0 -5 7 -7 15 -4 8 4 15 8 15 10 0 2 -7 4 -15 4 -8 0 -15
-4 -15 -10z"/>
<path d="M1902 3802 c-18 -6 -4 -22 19 -22 10 0 19 -4 19 -9 0 -5 8 -8 18 -7
20 3 30 36 10 37 -7 0 -22 2 -33 3 -12 1 -26 1 -33 -2z"/>
<path d="M3078 3793 c7 -3 16 -2 19 1 4 3 -2 6 -13 5 -11 0 -14 -3 -6 -6z"/>
<path d="M900 3771 c24 -9 24 -9 3 -10 -20 -1 -23 -7 -23 -40 l0 -38 44 21
c36 17 44 25 39 41 -7 27 -5 25 -49 30 -32 4 -34 3 -14 -4z"/>
<path d="M2955 3770 c-3 -6 1 -7 9 -4 18 7 21 14 7 14 -6 0 -13 -4 -16 -10z"/>
<path d="M2937 3723 c-3 -5 -8 -37 -12 -73 l-7 -65 21 19 c16 15 21 31 21 73
0 47 -10 67 -23 46z"/>
<path d="M2660 3710 c0 -5 4 -10 9 -10 6 0 13 5 16 10 3 6 -1 10 -9 10 -9 0
-16 -4 -16 -10z"/>
<path d="M746 3612 c-3 -6 -1 -14 5 -17 14 -9 20 -2 10 14 -6 8 -11 9 -15 3z"/>
<path d="M2667 3423 c-4 -3 -6 -31 -6 -62 l1 -56 9 59 c9 60 8 72 -4 59z"/>
<path d="M6068 3343 c12 -2 30 -2 40 0 9 3 -1 5 -23 4 -22 0 -30 -2 -17 -4z"/>
<path d="M5963 3333 c15 -2 39 -2 55 0 15 2 2 4 -28 4 -30 0 -43 -2 -27 -4z"/>
<path d="M5873 3323 c9 -2 25 -2 35 0 9 3 1 5 -18 5 -19 0 -27 -2 -17 -5z"/>
<path d="M5645 3309 c-49 -5 -128 -13 -175 -18 -74 -8 -68 -9 50 -3 217 10
205 11 208 -21 4 -33 22 -26 22 9 0 19 5 24 24 24 14 0 28 5 31 10 7 11 -27
11 -160 -1z"/>
<path d="M5303 3273 c15 -2 39 -2 55 0 15 2 2 4 -28 4 -30 0 -43 -2 -27 -4z"/>
<path d="M5188 3263 c12 -2 30 -2 40 0 9 3 -1 5 -23 4 -22 0 -30 -2 -17 -4z"/>
<path d="M5088 3253 c6 -2 18 -2 25 0 6 3 1 5 -13 5 -14 0 -19 -2 -12 -5z"/>
<path d="M3192 3168 c20 -37 18 -55 -2 -27 -18 24 -23 26 -68 18 -27 -4 -64
-14 -83 -22 -48 -21 -141 -115 -134 -136 3 -9 -2 -26 -11 -37 -8 -10 -12 -13
-8 -5 8 16 15 81 8 81 -8 0 -36 -72 -40 -105 -2 -16 -6 -39 -8 -50 -3 -19 19
-75 29 -75 3 0 3 17 0 38 l-5 37 13 -29 13 -29 16 40 c8 23 13 52 11 66 -7 35
21 83 65 111 48 32 138 51 173 38 41 -16 89 -62 89 -85 0 -12 14 -48 30 -79
28 -53 29 -61 24 -132 -5 -52 -11 -77 -21 -81 -9 -3 -13 -12 -9 -21 4 -11 2
-15 -8 -11 -9 4 -13 1 -10 -6 6 -17 -77 -107 -111 -121 l-28 -12 28 -18 c31
-21 28 -23 69 39 10 14 14 16 13 5 -1 -35 6 -84 10 -67 2 9 8 17 13 17 4 0 6
18 3 39 -7 52 2 84 32 117 14 15 25 24 25 20 0 -11 66 57 79 81 26 51 6 154
-54 273 -34 68 -56 96 -97 127 -43 31 -63 31 -46 1z m148 -377 c0 -5 -7 -12
-16 -15 -14 -5 -15 -4 -4 9 14 17 20 19 20 6z"/>
<path d="M2995 3150 c-3 -6 1 -7 9 -4 18 7 21 14 7 14 -6 0 -13 -4 -16 -10z"/>
<path d="M1352 3138 c3 -7 15 -14 29 -16 23 -2 23 -2 5 13 -24 18 -39 20 -34
3z"/>
<path d="M1303 3123 c-28 -5 -54 -34 -35 -40 21 -8 13 -26 -9 -20 -29 8 -21
-24 11 -40 23 -12 65 -11 143 3 25 5 27 3 27 -30 0 -19 5 -38 10 -41 6 -3 10
-22 10 -41 0 -40 -19 -52 -60 -37 -19 7 -35 7 -55 -1 l-27 -11 33 -33 33 -32
-28 0 c-18 0 -26 -4 -23 -12 2 -7 16 -12 31 -11 16 1 26 -3 26 -11 0 -25 -29
-39 -70 -33 -22 3 -40 2 -40 -3 0 -9 63 -59 96 -76 17 -9 25 -7 45 10 23 20
25 29 25 94 -1 52 3 75 13 81 8 5 11 16 8 25 -4 11 -1 16 10 16 9 0 13 3 10 7
-4 3 -1 13 5 21 10 11 9 17 -6 28 -15 10 -20 28 -22 75 -2 47 -7 66 -24 84
l-22 23 -37 -20 c-20 -11 -46 -32 -58 -46 -11 -15 -25 -23 -30 -19 -4 5 4 18
20 29 15 11 25 24 21 29 -3 5 2 9 10 9 21 0 21 16 0 24 -9 3 -16 5 -17 5 -1
-1 -12 -4 -24 -6z"/>
<path d="M3461 2958 c1 -90 3 -154 5 -143 7 46 9 305 2 305 -5 0 -7 -73 -7
-162z"/>
<path d="M4700 3098 c-25 -5 -52 -16 -61 -24 -8 -8 -20 -14 -25 -14 -6 0 -22
-12 -36 -27 -22 -24 -26 -39 -29 -98 -3 -95 -1 -125 11 -125 6 0 10 10 10 23
0 12 5 39 11 59 13 47 47 66 129 73 72 6 115 -13 123 -54 3 -14 9 -34 12 -43
6 -14 -1 -17 -47 -20 l-53 -3 -3 -40 c-2 -36 -1 -38 11 -22 15 18 53 24 42 6
-5 -7 4 -9 26 -7 28 2 35 -1 37 -18 2 -11 -4 -27 -13 -34 -8 -7 -15 -24 -15
-38 0 -30 -33 -86 -63 -107 -13 -9 -44 -15 -76 -15 -53 0 -54 0 -36 -20 10
-11 33 -25 51 -32 19 -7 34 -16 34 -20 0 -12 45 -9 58 4 9 9 12 7 12 -10 0
-13 6 -22 16 -22 9 0 12 5 8 12 -4 6 -3 8 4 4 5 -3 12 0 15 6 2 7 8 9 13 5 12
-12 -27 -39 -48 -34 -9 3 -19 -2 -23 -11 -4 -12 -18 -14 -74 -9 -73 6 -108 21
-117 49 -3 10 -12 18 -21 18 -12 0 -13 -6 -7 -27 12 -41 13 -112 3 -119 -5 -3
-9 3 -9 13 0 15 -2 16 -10 3 -12 -19 17 -43 43 -36 9 2 17 1 17 -4 0 -10 -37
-20 -45 -11 -4 3 -28 11 -53 16 -38 9 -46 14 -44 30 2 16 1 17 -7 6 -5 -8 -25
-15 -45 -15 -37 -2 -63 -16 -30 -17 16 0 15 -2 -5 -10 -19 -8 -27 -6 -33 6
-11 18 -34 20 -41 3 -4 -10 -6 -10 -6 0 -1 21 -21 3 -21 -20 0 -13 -5 -18 -14
-15 -9 4 -19 -5 -26 -24 -12 -28 -30 -40 -30 -18 0 5 -5 7 -10 4 -8 -5 -7 -11
1 -21 13 -16 -10 -94 -35 -120 -11 -10 -16 -34 -16 -69 0 -59 -16 -105 -36
-105 -7 0 -16 -10 -20 -22 -3 -13 -15 -35 -25 -50 -11 -14 -19 -31 -19 -37 0
-17 -37 -54 -43 -44 -3 4 1 35 9 68 8 33 18 78 23 100 11 48 8 55 -13 23 -9
-13 -21 -60 -27 -103 -12 -94 -25 -113 -60 -93 -13 7 -28 19 -32 26 -4 6 -19
12 -33 12 -14 0 -23 4 -20 9 6 10 56 8 73 -2 15 -10 26 69 13 94 -13 24 -5 56
23 87 28 30 40 28 35 -7 -7 -46 18 -27 43 35 13 32 29 54 38 55 11 0 12 2 4 6
-26 10 -13 25 16 20 38 -8 51 18 14 28 -19 4 -23 10 -18 23 5 9 8 28 9 40 1
13 11 32 23 42 31 25 36 57 18 120 -8 30 -25 105 -37 167 -19 100 -20 117 -8
155 7 24 20 50 27 59 8 9 14 29 14 45 0 16 0 51 0 77 0 103 -41 151 -131 151
-79 0 -130 -54 -130 -137 0 -60 16 -54 26 10 10 67 34 86 100 81 66 -6 81 -17
62 -47 -11 -18 -11 -23 2 -31 8 -5 12 -10 10 -12 -3 -2 -14 -8 -25 -14 -14 -8
-20 -22 -20 -45 -1 -27 -5 -35 -23 -37 -12 -2 -22 -8 -22 -13 0 -5 -8 -9 -17
-9 -15 0 -16 2 -3 10 13 8 13 10 -2 10 -9 0 -20 -4 -23 -10 -3 -5 -31 -10 -62
-10 -37 0 -72 -7 -100 -21 -81 -39 -164 -169 -182 -286 -8 -55 -17 -79 -38
-101 l-28 -30 -45 17 -44 16 0 170 1 170 -7 -155 c-4 -85 -8 -160 -9 -167 -1
-16 -25 -7 -75 27 l-40 27 -50 -100 c-35 -71 -69 -120 -117 -171 l-67 -71 -21
25 c-11 14 -30 39 -40 55 -22 33 -81 228 -81 266 0 14 -3 19 -8 13 -11 -18
-69 -44 -94 -43 -14 0 -5 6 24 15 77 23 72 49 -8 45 -34 -1 -42 2 -38 13 6 16
-29 32 -46 21 -15 -9 -12 11 3 23 10 9 19 7 36 -4 12 -9 24 -14 27 -12 5 6
-61 52 -97 68 -25 11 -30 9 -62 -26 -19 -22 -50 -58 -68 -81 -19 -23 -38 -42
-44 -42 -5 0 -27 27 -48 60 -21 32 -43 57 -48 54 -5 -4 -6 1 -3 9 3 9 2 16 -4
16 -6 0 -15 -12 -21 -27 l-11 -28 6 30 c18 95 7 106 -28 29 -11 -27 -26 -44
-36 -44 -9 -1 -35 -9 -57 -20 -22 -11 -49 -19 -61 -20 -28 0 -52 -28 -56 -65
-2 -18 -9 -30 -18 -30 -9 0 -19 -17 -26 -45 -5 -25 -13 -52 -16 -60 -4 -8 -8
-28 -11 -44 -4 -27 -1 -30 64 -59 l69 -31 -5 -84 c-6 -97 -13 -132 -27 -132
-12 0 -1 -85 15 -115 6 -11 14 -60 18 -109 6 -71 4 -94 -7 -111 -14 -21 -13
-23 24 -38 21 -8 55 -19 75 -22 21 -4 40 -12 43 -17 4 -6 -1 -8 -12 -5 -11 3
-37 8 -59 12 -21 4 -51 13 -65 20 -25 13 -26 12 -52 -43 -20 -42 -27 -76 -29
-132 -2 -41 0 -80 4 -86 4 -7 3 -25 -2 -40 -31 -96 -16 -521 19 -555 23 -23
33 -160 18 -256 -8 -55 -8 -77 1 -86 16 -16 14 -44 -4 -51 -8 -3 -15 -15 -15
-26 0 -12 -11 -31 -23 -43 -53 -50 -82 -121 -67 -163 8 -20 16 -24 50 -24 39
0 103 25 131 52 8 7 37 24 64 38 50 25 68 55 48 83 -12 18 -7 154 8 219 13 56
14 57 44 53 16 -2 33 -4 37 -4 11 -1 2 -77 -15 -136 -8 -27 -11 -52 -7 -55 10
-7 37 -70 45 -105 3 -16 15 -39 24 -50 24 -27 41 -79 41 -126 l0 -39 188 0
188 0 12 132 c7 72 16 136 19 141 14 22 25 -31 30 -148 l6 -125 314 0 313 0 0
29 c0 50 9 61 51 61 l39 0 0 -45 0 -45 140 0 c120 0 142 2 147 16 6 17 6 22 4
151 -3 107 5 122 62 116 86 -10 112 35 57 95 -28 31 -28 34 -16 70 11 30 25
189 26 289 0 15 13 27 46 43 41 20 45 25 40 49 -4 14 -11 53 -16 86 -5 33 -12
71 -16 85 -7 22 -4 21 28 -12 32 -35 36 -44 47 -138 7 -55 19 -124 28 -152 20
-69 13 -317 -16 -523 -11 -82 -21 -156 -21 -162 0 -10 34 -13 139 -13 l139 0
-5 153 c-5 136 -3 167 21 297 15 80 34 165 41 189 9 25 15 83 15 131 0 97 30
196 57 186 10 -4 13 14 15 87 3 134 4 156 17 222 6 33 14 83 17 110 4 28 11
55 16 62 6 7 13 48 17 92 4 44 10 83 13 87 4 3 17 -1 30 -10 13 -9 39 -21 59
-26 36 -10 37 -10 48 -85 16 -108 14 -163 -9 -228 -11 -31 -20 -65 -20 -76 0
-11 -7 -27 -16 -36 -9 -9 -20 -30 -25 -48 -4 -18 -12 -49 -17 -70 -6 -21 -15
-44 -21 -51 -22 -26 -52 -132 -58 -202 -4 -57 -2 -77 12 -97 14 -22 15 -38 8
-104 -4 -43 -7 -93 -5 -110 2 -27 -1 -33 -16 -33 -11 0 -25 7 -32 15 -7 8 -16
15 -21 15 -17 0 -9 -24 18 -52 l27 -28 -3 -195 -3 -195 154 0 154 0 16 48 c9
26 19 61 22 79 7 45 67 183 78 183 6 0 7 -8 3 -17 -15 -41 -21 -104 -17 -196
l4 -97 195 0 194 0 18 44 c11 23 29 85 42 137 12 52 28 98 36 102 28 17 55 89
58 156 5 99 15 151 32 151 10 0 12 8 8 33 -4 22 3 61 24 123 45 140 53 172 61
274 8 94 5 150 -10 150 -10 0 -41 -200 -33 -213 3 -6 1 -7 -5 -3 -11 6 -13 -3
-25 -89 -3 -16 -17 -68 -32 -115 -26 -82 -32 -133 -20 -171 4 -11 2 -19 -4
-19 -5 0 -12 8 -14 17 -3 12 -5 8 -6 -9 0 -15 -5 -29 -10 -32 -5 -3 -17 -35
-26 -71 -10 -36 -22 -65 -26 -65 -5 0 -9 -7 -9 -15 0 -8 -16 -21 -35 -29 -25
-11 -35 -21 -35 -36 0 -12 -10 -30 -22 -41 -31 -25 -42 -24 -24 3 20 31 30 91
22 133 -8 41 -26 37 -26 -5 0 -27 -15 -48 -26 -37 -17 17 45 160 82 189 24 19
59 94 69 148 3 19 10 100 15 180 4 80 11 152 14 160 13 32 23 110 15 110 -5 0
-9 -12 -9 -27 -1 -27 -1 -27 -16 -8 -10 14 -13 31 -9 57 4 24 2 44 -8 60 -12
18 -13 46 -8 135 3 62 11 116 16 121 15 14 225 66 232 58 4 -4 6 -38 5 -76 -1
-38 3 -72 8 -75 7 -4 224 -35 247 -35 2 0 3 234 3 520 l0 520 -27 -6 c-25 -7
-26 -6 -20 30 5 30 3 36 -12 36 -10 0 -21 -9 -24 -20 -5 -21 -31 -25 -74 -14
-17 5 -23 14 -23 33 0 45 -11 72 -29 69 -12 -3 -16 -14 -14 -45 1 -43 -10 -53
-64 -53 -13 0 -23 -1 -23 -2 0 -2 -7 -117 -15 -257 -8 -140 -17 -256 -20 -259
-3 -3 -21 10 -40 28 -35 34 -46 75 -22 82 13 5 24 132 26 307 l1 103 -27 -6
c-16 -3 -59 -7 -96 -8 -65 -3 -68 -2 -73 22 -24 120 -38 156 -76 193 -21 20
-48 37 -59 37 -11 0 -32 6 -47 14 -43 22 -155 -7 -200 -53 -37 -37 -82 -123
-82 -158 0 -20 -4 -22 -32 -16 -38 7 -129 52 -141 70 -4 7 -14 10 -22 7 -32
-13 -32 101 1 137 9 10 18 31 20 45 1 15 9 31 16 35 10 6 10 13 2 26 -8 13 -7
29 3 62 7 24 13 66 13 93 0 44 -4 53 -43 92 -36 36 -121 80 -146 75 -3 -1 -26
-6 -51 -11z m-590 -278 c0 -11 -7 -20 -15 -20 -8 0 -15 9 -15 20 0 11 7 20 15
20 8 0 15 -9 15 -20z m707 4 c-3 -3 -12 -4 -19 -1 -8 3 -5 6 6 6 11 1 17 -2
13 -5z m-866 -117 c29 -24 46 -97 22 -97 -6 0 -24 -5 -38 -12 -24 -11 -25 -15
-21 -64 5 -57 -3 -67 -46 -57 -22 5 -22 5 -4 -9 10 -8 16 -20 12 -26 -3 -6 7
-13 26 -17 l32 -8 -37 -16 c-42 -18 -45 -26 -17 -41 30 -16 15 -30 -31 -30
-51 0 -90 36 -87 78 2 26 6 29 33 28 23 -1 29 3 27 16 -1 9 2 19 8 23 5 3 10
11 10 16 0 16 -43 -1 -61 -23 -16 -20 -16 -20 -22 11 -8 40 34 176 65 212 40
45 88 51 129 16z m1413 -146 c38 -25 55 -57 56 -101 0 -24 6 -39 20 -47 17
-11 18 -17 8 -45 -6 -18 -14 -35 -17 -38 -14 -12 -42 -71 -37 -79 3 -4 -3 -16
-14 -26 -11 -10 -20 -23 -20 -28 0 -18 -54 -57 -94 -68 -29 -8 -36 -13 -25
-20 22 -14 77 -11 110 7 28 14 32 14 50 -2 10 -9 21 -25 24 -35 4 -11 11 -16
17 -13 7 4 8 -2 3 -17 -10 -31 -98 -139 -173 -212 l-59 -59 -31 40 c-17 21
-36 52 -42 68 -14 36 -3 171 16 199 23 32 17 93 -11 126 -70 84 -57 259 26
333 36 33 44 36 102 36 44 0 70 -6 91 -19z m-1354 -54 c0 -5 -5 -17 -10 -27
-16 -29 -60 -7 -60 30 0 26 1 27 35 16 19 -6 35 -15 35 -19z m-1723 -59 c-3
-7 -5 -2 -5 12 0 14 2 19 5 13 2 -7 2 -19 0 -25z m100 -40 c-3 -8 -6 -5 -6 6
-1 11 2 17 5 13 3 -3 4 -12 1 -19z m370 16 c-3 -3 -12 -4 -19 -1 -8 3 -5 6 6
6 11 1 17 -2 13 -5z m-101 -49 c-21 -19 -41 -35 -45 -35 -7 0 -26 -53 -42
-115 -6 -22 -14 -49 -18 -60 -27 -69 -32 -96 -21 -110 10 -11 7 -15 -13 -20
-14 -4 -34 -2 -44 3 -17 10 -17 11 -1 17 9 4 15 12 12 19 -2 6 11 43 29 81 19
39 40 88 47 110 28 87 73 145 113 145 18 0 15 -5 -17 -35z m-281 -81 c-35 -26
-61 -13 -75 35 -8 29 -7 31 6 20 12 -10 16 -9 21 9 5 22 23 31 23 12 0 -18 20
-11 21 8 1 9 6 -3 12 -27 9 -38 8 -45 -8 -57z m1466 -25 c6 -12 8 -36 4 -55
-5 -30 -3 -34 15 -34 11 0 29 6 40 12 16 10 24 10 43 -1 12 -8 39 -13 61 -12
38 2 38 1 31 -26 -4 -15 -9 -41 -11 -56 -3 -33 -14 -49 -14 -21 -1 19 -1 19
-12 0 -19 -33 -42 -57 -90 -91 -43 -32 -47 -38 -45 -72 2 -41 -1 -42 -58 -28
-28 8 -29 7 -16 -9 8 -10 28 -24 45 -33 17 -9 41 -26 53 -39 19 -21 20 -24 4
-29 -16 -5 -156 17 -156 25 0 1 -10 3 -22 6 -20 3 -23 0 -23 -32 0 -55 -39
-234 -63 -284 -23 -52 -24 -54 -26 -78 -2 -30 -35 -43 -68 -28 -15 8 -46 13
-68 11 -217 -18 -239 -17 -325 4 -114 29 -196 62 -178 72 27 15 178 49 220 49
52 0 130 20 178 45 19 10 51 21 70 24 33 6 35 9 38 50 2 38 1 42 -12 32 -7 -6
-12 -20 -9 -31 7 -25 -35 -45 -109 -54 -33 -4 -57 -12 -55 -18 3 -15 -37 -26
-97 -27 -27 -1 -74 -9 -105 -20 -53 -18 -208 -55 -279 -66 -35 -6 -156 16
-228 40 -23 8 -51 11 -63 8 -32 -8 -47 11 -61 78 -20 94 -8 246 28 349 34 100
41 103 133 66 57 -23 64 -24 74 -9 11 15 13 15 23 -3 12 -23 69 -183 84 -236
13 -48 41 -57 199 -65 162 -8 219 1 268 41 44 37 154 67 174 47 23 -23 26 -18
41 80 8 45 34 58 127 66 l67 6 13 -44 c7 -24 14 -37 16 -28 2 8 16 22 31 31
15 9 35 25 45 36 17 18 16 22 -22 100 -55 111 -58 124 -30 169 33 53 79 103
95 103 7 0 18 -9 25 -21z m416 -41 c-3 -8 -6 -5 -6 6 -1 11 2 17 5 13 3 -3 4
-12 1 -19z m-161 -25 c-10 -10 -19 5 -10 18 6 11 8 11 12 0 2 -7 1 -15 -2 -18z
m-1731 -25 c-15 -66 -24 -81 -40 -68 -18 15 -20 40 -2 40 6 0 18 14 25 30 18
39 25 38 17 -2z m2575 -65 c0 -32 -4 -52 -10 -48 -5 3 -7 19 -3 35 5 25 2 30
-14 30 -12 0 -23 -11 -30 -27 -10 -26 -11 -25 -12 19 l-1 47 35 -1 35 -1 0
-54z m-711 6 c44 -15 40 -35 -17 -84 l-23 -19 11 29 c11 28 6 37 -25 48 -7 2
10 33 21 37 1 0 15 -5 33 -11z m-1892 -61 c-3 -8 -6 -5 -6 6 -1 11 2 17 5 13
3 -3 4 -12 1 -19z m3752 -81 c-5 -21 -8 -41 -5 -46 3 -5 -1 -14 -9 -21 -14
-11 -14 -15 -1 -29 12 -14 13 -25 4 -61 -13 -52 -33 -80 -59 -80 -32 0 -31 1
3 147 8 37 18 54 32 58 19 6 19 8 4 12 -10 2 -18 11 -18 20 0 9 6 13 15 9 9
-3 20 3 27 14 17 27 19 20 7 -23z m-3709 23 c0 -5 -5 -10 -11 -10 -5 0 -7 5
-4 10 3 6 8 10 11 10 2 0 4 -4 4 -10z m-50 -57 c0 -13 -3 -13 -15 -3 -8 7 -15
16 -15 21 0 5 7 6 15 3 8 -4 15 -13 15 -21z m2110 -163 c0 -5 -5 -10 -11 -10
-5 0 -7 5 -4 10 3 6 8 10 11 10 2 0 4 -4 4 -10z m-265 -169 c0 -17 5 -35 10
-39 6 -4 11 -27 13 -51 2 -35 -2 -48 -23 -68 l-25 -26 0 112 c0 86 3 112 13
108 6 -2 12 -18 12 -36z m150 -90 c12 -21 -78 -137 -137 -177 -24 -16 -47 -34
-53 -40 -12 -13 -159 -98 -195 -113 -14 -6 -43 -23 -65 -39 -31 -21 -41 -36
-43 -61 -3 -27 -7 -32 -25 -29 -12 2 -23 12 -25 23 -6 29 -52 87 -65 82 -7 -2
-11 -11 -9 -21 4 -23 -25 -20 -38 4 -6 11 -22 31 -35 46 -14 15 -25 33 -25 40
0 8 -6 14 -14 14 -27 0 -86 42 -101 71 -38 72 3 75 72 4 23 -24 66 -55 96 -69
55 -27 89 -58 121 -109 l17 -28 22 33 c15 21 48 46 92 68 75 38 138 81 197
136 20 19 41 34 45 34 4 0 24 18 44 41 23 27 45 41 62 42 20 2 27 7 27 23 0
31 21 46 35 25z m-1815 -374 c1 -73 -35 -241 -50 -232 -5 3 -4 22 0 42 4 21
11 94 14 163 4 69 10 141 13 160 l7 35 7 -48 c4 -27 8 -81 9 -120z m1714 137
c3 -9 2 -12 -5 -9 -6 4 -13 -3 -16 -16 -6 -21 -7 -22 -13 -3 -6 15 9 40 26 44
1 0 5 -7 8 -16z m2 -101 c-10 -10 -19 5 -10 18 6 11 8 11 12 0 2 -7 1 -15 -2
-18z m-474 -108 c6 -13 15 -22 21 -18 12 7 27 -16 20 -34 -10 -25 -43 -15 -49
16 -4 17 -12 32 -20 35 -19 7 -18 26 1 26 9 0 20 -11 27 -25z m187 -57 c1 -10
-6 -18 -15 -18 -12 0 -15 6 -10 23 3 12 6 29 7 37 1 20 17 -18 18 -42z m-684
32 c3 -5 -1 -10 -10 -10 -9 0 -13 5 -10 10 3 6 8 10 10 10 2 0 7 -4 10 -10z
m1148 -45 c9 -23 -11 -28 -23 -5 -8 16 -8 20 4 20 7 0 16 -7 19 -15z m-703 -9
c0 -2 -7 -6 -15 -10 -8 -3 -15 -1 -15 4 0 6 7 10 15 10 8 0 15 -2 15 -4z m172
-5 c3 -11 44 -19 101 -20 34 -1 37 -3 37 -30 0 -15 -3 -49 -6 -75 -7 -45 -8
-46 -38 -42 -17 3 -57 8 -88 11 l-58 6 0 48 c0 41 3 49 25 59 23 11 34 31 18
33 -23 2 -57 10 -62 14 -2 3 12 5 32 5 19 0 37 -4 39 -9z m-502 -103 c0 -46
-4 -88 -8 -94 -4 -6 -58 -14 -124 -18 l-118 -6 0 93 0 93 80 0 c44 -1 80 -4
80 -8 0 -15 51 -8 56 7 4 8 12 15 20 15 11 0 14 -19 14 -82z m387 46 c-35 -24
-50 -23 -40 2 5 14 3 15 -15 5 -12 -7 -22 -8 -22 -3 0 15 9 18 59 18 l50 0
-32 -22z m2020 -26 c-3 -8 -6 -5 -6 6 -1 11 2 17 5 13 3 -3 4 -12 1 -19z
m-3283 -33 c-4 -8 -8 -15 -10 -15 -2 0 -4 7 -4 15 0 8 4 15 10 15 5 0 7 -7 4
-15z m2871 -51 c0 -30 -4 -40 -18 -42 -17 -3 -18 1 -13 35 3 21 5 42 6 46 0 5
6 7 13 5 7 -3 12 -21 12 -44z m-95 -42 c0 -4 12 -9 28 -10 15 -1 47 -5 72 -9
25 -4 60 -7 78 -7 l34 1 -7 -86 c-4 -47 -10 -90 -14 -94 -4 -4 -60 -1 -125 8
-64 8 -120 15 -123 15 -13 0 5 173 18 181 17 11 39 11 39 1z m360 -426 c0 -3
-4 -8 -10 -11 -5 -3 -10 -1 -10 4 0 6 5 11 10 11 6 0 10 -2 10 -4z m-158 -28
c-7 -7 -12 -8 -12 -2 0 14 12 26 19 19 2 -3 -1 -11 -7 -17z m-1728 -44 c9 -24
7 -174 -3 -174 -5 0 -23 3 -41 7 l-33 6 6 61 c8 81 22 116 46 116 10 0 22 -7
25 -16z m1839 1 c-3 -9 -8 -14 -10 -11 -3 3 -2 9 2 15 9 16 15 13 8 -4z"/>
<path d="M3833 2607 c4 -11 -2 -17 -24 -22 -16 -4 -29 -11 -29 -17 0 -5 6 -8
13 -5 6 2 20 -2 29 -10 19 -17 51 -5 62 23 8 20 0 29 -33 39 -19 6 -23 4 -18
-8z"/>
<path d="M5338 2433 c7 -3 16 -2 19 1 4 3 -2 6 -13 5 -11 0 -14 -3 -6 -6z"/>
<path d="M5150 2400 c0 -5 16 -10 36 -10 21 0 33 4 29 10 -3 6 -19 10 -36 10
-16 0 -29 -4 -29 -10z"/>
<path d="M5330 2398 c-23 -10 -22 -12 24 -19 50 -8 75 -3 59 11 -16 14 -58 18
-83 8z"/>
<path d="M5264 2288 c-9 -14 -2 -16 26 -8 25 6 25 6 3 12 -13 3 -26 2 -29 -4z"/>
<path d="M5243 2243 c37 -2 67 -7 67 -12 0 -11 -46 -31 -71 -31 -11 0 -17 -4
-14 -10 3 -5 22 -10 42 -10 20 0 34 3 30 6 -3 3 8 19 26 35 l31 29 -89 -2
c-83 -2 -85 -2 -22 -5z"/>
<path d="M2665 1750 c3 -5 11 -10 16 -10 6 0 7 5 4 10 -3 6 -11 10 -16 10 -6
0 -7 -4 -4 -10z"/>
<path d="M3172 871 c-16 -36 -9 -51 22 -51 29 0 53 25 35 35 -6 4 -15 1 -20
-6 -9 -14 -14 -5 -21 34 -2 13 -6 11 -16 -12z"/>
<path d="M5247 660 c-5 -21 2 -29 31 -35 11 -2 19 3 19 11 0 10 -4 11 -14 3
-10 -9 -13 -7 -13 9 0 28 -16 37 -23 12z"/>
<path d="M2604 3055 c4 -13 2 -16 -9 -12 -8 4 -33 -3 -55 -15 -44 -24 -38 -37
15 -38 17 0 41 -7 55 -15 31 -18 37 -18 43 -2 2 6 2 1 0 -12 -4 -23 26 -111
38 -111 14 0 19 33 8 46 -7 9 -9 30 -5 54 8 52 -5 75 -56 101 -36 18 -40 19
-34 4z m86 -85 c0 -5 -4 -10 -10 -10 -5 0 -10 5 -10 10 0 6 5 10 10 10 6 0 10
-4 10 -10z"/>
<path d="M556 3013 c-16 -3 -38 -16 -49 -29 -10 -13 -22 -22 -25 -20 -11 7
-65 -20 -92 -45 -51 -48 -71 -97 -69 -163 2 -34 6 -66 11 -72 4 -6 9 -26 11
-44 1 -19 8 -35 15 -38 7 -2 10 2 6 12 -5 12 0 16 21 16 25 0 26 2 20 31 -10
46 16 69 77 69 34 0 50 5 54 15 10 26 32 16 37 -17 3 -18 2 -36 -2 -40 -4 -4
-39 -9 -79 -10 -71 -2 -72 -2 -72 -29 0 -34 16 -78 38 -102 17 -19 22 -124 6
-148 -5 -8 5 -23 27 -42 21 -18 29 -31 22 -34 -15 -6 -17 -39 -3 -48 14 -8 50
13 50 30 0 26 21 27 46 2 31 -32 26 -79 -15 -120 l-28 -29 -33 44 c-19 24 -50
61 -71 84 -20 22 -42 57 -48 76 -12 35 -12 36 -46 25 -19 -6 -44 -19 -55 -29
-11 -10 -20 -14 -20 -9 0 6 8 15 18 21 13 9 10 10 -18 4 -19 -3 -39 -10 -45
-15 -5 -5 -20 -9 -33 -9 -41 0 -108 -50 -140 -104 -66 -110 -72 -126 -72 -181
0 -42 4 -56 18 -64 30 -16 46 -198 28 -316 -8 -49 -19 -106 -25 -125 -7 -21
-11 -89 -9 -170 3 -193 1 -361 -8 -468 -7 -92 -7 -93 21 -122 17 -17 43 -31
66 -35 47 -8 83 2 75 21 -3 8 -9 20 -12 28 -4 11 0 13 15 9 21 -5 24 -12 37
-73 3 -19 26 -84 51 -145 l44 -110 21 -248 22 -247 268 0 268 0 0 39 c0 21 11
99 25 172 27 143 30 227 13 391 -8 82 -7 115 11 225 12 70 26 146 32 168 19
73 30 159 26 202 -3 23 -2 45 1 48 10 10 41 -78 41 -117 1 -20 6 -40 11 -43 6
-3 10 1 10 10 0 9 8 30 17 45 14 24 15 34 5 55 -13 28 -16 73 -5 61 12 -11 33
-128 26 -140 -4 -6 -10 -26 -13 -46 -4 -24 -11 -34 -21 -32 -12 2 -15 -8 -14
-50 1 -29 5 -62 10 -72 6 -13 5 -21 -3 -24 -7 -2 -12 -8 -12 -13 0 -11 30 0
53 19 9 8 20 13 23 9 3 -3 -12 -17 -33 -31 l-38 -26 -17 -131 c-9 -72 -22
-137 -29 -145 -6 -8 -8 -14 -4 -14 4 0 3 -6 -2 -13 -6 -6 -13 -26 -16 -44 -5
-26 -2 -35 14 -47 20 -13 20 -17 8 -88 -7 -42 -9 -93 -5 -121 6 -40 11 -47 29
-47 37 0 98 -20 92 -31 -4 -5 1 -9 9 -9 9 0 16 -4 16 -10 0 -5 -10 -10 -21
-10 -18 0 -19 -3 -9 -15 10 -12 19 -9 58 21 26 20 48 44 48 55 1 11 19 63 40
115 32 79 41 94 58 92 27 -4 34 -34 35 -162 1 -60 5 -123 11 -140 5 -17 12
-48 15 -68 l6 -38 263 0 264 0 6 24 c3 13 13 77 21 142 16 129 27 190 56 302
11 40 19 77 19 82 0 6 -25 10 -56 10 -77 0 -108 21 -146 97 -28 58 -31 73 -37
203 -5 110 -3 140 7 140 7 0 16 -9 20 -21 7 -19 9 -19 21 -5 7 9 11 23 7 31
-3 9 -2 13 4 10 6 -3 10 -13 10 -21 0 -22 16 -16 36 13 24 37 25 63 3 92 -21
27 -16 42 31 89 37 37 37 46 3 61 -26 12 -27 11 -11 -5 16 -16 13 -21 -43 -83
-34 -36 -66 -76 -71 -88 -6 -13 -15 -23 -19 -23 -5 0 -19 -11 -32 -24 -23 -23
-24 -26 -8 -40 10 -9 20 -14 22 -12 7 8 -10 -298 -19 -334 -22 -88 -62 -131
-148 -161 -85 -30 -240 -24 -302 11 l-44 25 5 305 c3 221 9 334 21 409 17 102
16 105 -2 131 -63 85 -106 222 -117 375 -7 90 -7 90 -45 118 -21 15 -43 27
-49 27 -17 0 -13 10 12 32 l22 20 -22 -5 c-31 -7 -29 5 5 24 28 16 29 15 41
-13 7 -15 17 -26 22 -22 5 3 9 0 9 -5 0 -6 -7 -11 -17 -11 -14 0 -14 -2 3 -21
19 -21 19 -21 31 38 7 32 12 76 13 98 0 22 12 77 26 122 21 65 33 87 59 108
30 22 126 55 163 55 7 0 30 13 50 28 20 16 50 34 66 41 l29 12 -6 -58 c-4 -37
-1 -87 10 -137 12 -60 13 -84 4 -98 -6 -10 -11 -23 -11 -30 0 -9 3 -8 10 2 5
8 11 12 13 10 3 -4 27 -127 82 -420 6 -36 22 -101 33 -145 12 -44 26 -117 31
-163 5 -46 12 -86 15 -89 16 -16 26 21 32 117 3 58 13 134 21 170 14 66 43
242 43 267 0 10 -5 11 -19 3 -45 -24 -91 -6 -91 36 0 26 15 40 53 46 22 4 32
0 45 -20 16 -25 17 -21 22 138 5 163 -1 278 -15 313 -6 14 3 12 44 -13 61 -35
71 -37 46 -10 -15 16 -18 36 -17 101 1 84 7 104 22 79 12 -19 12 35 1 65 -5
12 -2 42 7 73 14 48 13 58 -2 116 -11 38 -28 73 -42 87 -31 29 -31 43 1 35 20
-5 25 -3 25 13 0 15 -11 22 -47 31 -65 15 -81 18 -135 25 -32 4 -48 11 -48 21
0 26 -35 15 -46 -14 -9 -24 -8 -31 5 -39 13 -9 11 -12 -15 -26 -32 -17 -114
-129 -114 -157 0 -9 5 -21 11 -27 13 -13 5 -43 -10 -43 -6 0 -8 7 -5 15 4 8 2
15 -4 15 -5 0 -12 -26 -15 -58 -4 -32 -11 -69 -17 -83 l-11 -24 6 25 c7 33 16
180 9 159 -5 -17 -127 -119 -141 -119 -4 0 -42 27 -83 60 -41 33 -78 60 -82
60 -20 0 -22 -89 -4 -132 5 -12 1 -20 -16 -29 -20 -11 -22 -11 -10 3 10 13 10
26 2 65 -19 81 -19 80 -43 51 -12 -14 -52 -41 -87 -60 -62 -34 -66 -38 -86
-97 -25 -73 -35 -87 -27 -37 3 20 3 36 0 36 -6 0 -47 -65 -64 -102 -14 -32
-18 -33 -66 -13 -57 24 -67 38 -55 82 6 21 11 52 12 70 1 39 41 73 85 73 28 0
31 3 27 25 -3 14 -1 25 4 25 5 0 7 19 5 43 -2 23 -4 59 -4 79 -1 21 -8 44 -18
54 -17 17 -17 18 0 11 9 -3 17 -4 17 -1 0 8 -34 57 -51 75 -9 9 -18 21 -20 26
-11 27 -145 87 -183 82 -6 -1 -24 -4 -40 -6z m1182 -120 c-10 -2 -28 -2 -40 0
-13 2 -5 4 17 4 22 1 32 -1 23 -4z m-1138 -53 c0 -5 3 -15 6 -24 4 -11 0 -16
-13 -16 -15 0 -20 7 -21 29 0 22 3 28 14 24 8 -3 14 -9 14 -13z m-130 -20 c0
-5 -4 -10 -10 -10 -5 0 -10 5 -10 10 0 6 5 10 10 10 6 0 10 -4 10 -10z m75
-18 c-3 -3 -11 0 -18 7 -9 10 -8 11 6 5 10 -3 15 -9 12 -12z m1253 -49 c28
-21 52 -44 52 -52 0 -8 7 -23 17 -33 15 -17 14 -18 -23 -18 -22 0 -45 -5 -52
-12 -15 -15 -16 -62 -1 -52 6 3 22 0 36 -7 19 -10 28 -11 44 -1 32 20 35 -11
5 -68 -31 -60 -33 -70 -6 -39 17 21 19 21 13 4 -12 -36 -35 -65 -46 -58 -6 3
-7 1 -3 -6 9 -13 -29 -51 -51 -51 -7 0 -13 -4 -13 -9 0 -4 -12 -6 -27 -4 -26
4 -26 3 -10 -10 9 -8 17 -24 17 -35 0 -15 5 -20 15 -16 8 4 15 18 15 32 0 25
1 25 15 6 14 -18 14 -18 10 4 -2 12 1 22 6 22 6 0 10 -18 8 -42 -1 -24 1 -68
5 -98 9 -67 -5 -104 -64 -170 l-40 -45 -23 28 c-12 15 -37 44 -55 64 -20 22
-40 62 -54 106 -19 62 -20 79 -11 154 12 97 1 163 -28 170 -12 3 -21 21 -28
51 -11 54 -8 61 20 43 12 -7 22 -11 23 -9 2 2 17 33 35 69 35 73 55 96 97 109
45 13 47 12 102 -27z m-1133 -64 c12 -19 -5 -23 -22 -6 -16 16 -16 17 -1 17 9
0 20 -5 23 -11z m-145 -33 c0 -3 -4 -8 -10 -11 -5 -3 -10 -1 -10 4 0 6 5 11
10 11 6 0 10 -2 10 -4z m1333 -33 c-7 -2 -19 -2 -25 0 -7 3 -2 5 12 5 14 0 19
-2 13 -5z m-1253 -12 c0 -12 -52 -21 -79 -14 -38 10 -22 23 29 23 28 0 50 -4
50 -9z m-101 -20 c10 -10 31 -23 47 -28 48 -16 41 -33 -15 -33 -47 0 -51 2
-57 28 -3 15 -7 33 -10 40 -5 18 13 15 35 -7z m1418 -73 c-3 -8 -6 -5 -6 6 -1
11 2 17 5 13 3 -3 4 -12 1 -19z m-767 -31 c0 -19 68 -143 87 -158 15 -13 16
-8 10 61 -5 57 -4 69 4 50 6 -14 10 -49 10 -77 0 -61 10 -71 44 -49 14 9 25
12 25 7 0 -14 -34 -31 -62 -31 -26 0 -69 48 -94 107 -9 21 -23 50 -30 65 -16
31 -18 52 -4 43 6 -3 10 -12 10 -18z m87 -9 c-3 -7 -5 -2 -5 12 0 14 2 19 5
13 2 -7 2 -19 0 -25z m230 -5 c-3 -26 -27 -46 -27 -23 0 14 19 50 26 50 2 0 3
-12 1 -27z m-1089 -115 c-2 -6 -10 -14 -16 -16 -7 -2 -10 2 -6 12 7 18 28 22
22 4z m332 -42 c0 -2 -7 -9 -15 -16 -13 -11 -14 -10 -9 4 5 14 24 23 24 12z
m255 -6 c-3 -5 -13 -10 -21 -10 -8 0 -12 5 -9 10 3 6 13 10 21 10 8 0 12 -4 9
-10z m265 -26 c0 -2 -9 -4 -20 -4 -11 0 -20 4 -20 9 0 5 9 7 20 4 11 -3 20 -7
20 -9z m479 -470 c1 -34 -5 -76 -12 -92 -12 -29 -14 -30 -24 -13 -10 16 -9 20
8 24 21 6 24 40 10 160 -4 37 -5 70 -2 73 8 8 19 -78 20 -152z m-648 -11 c13
-15 12 -15 -8 -4 -24 12 -29 21 -14 21 5 0 15 -7 22 -17z m-185 -141 c-13 -12
-17 8 -9 44 l8 39 3 -39 c2 -21 1 -41 -2 -44z m145 -44 c6 -58 6 -178 0 -178
-9 0 -37 62 -45 102 -3 14 -8 33 -12 41 -6 17 21 47 42 47 8 0 15 -6 15 -12z
m-957 -14 c3 -8 2 -12 -4 -9 -6 3 -10 10 -10 16 0 14 7 11 14 -7z m696 -265
c0 -18 5 -29 14 -29 8 0 23 -3 33 -6 13 -4 15 -3 5 4 -11 7 -8 10 12 14 26 5
26 4 28 -58 0 -35 1 -69 2 -76 1 -14 -40 -24 -141 -33 l-73 -7 0 76 c0 72 1
76 23 76 41 0 67 12 67 30 0 28 11 51 21 44 5 -3 9 -18 9 -35z m294 -19 c4
-25 3 -31 -4 -20 -5 8 -10 26 -10 39 0 32 6 24 14 -19z m-876 -265 c10 -75 8
-120 -5 -155 -4 -8 -10 9 -14 39 -4 29 -17 66 -28 82 -21 28 -28 88 -15 135
l6 21 23 -21 c17 -16 25 -39 33 -101z m1696 -10 c3 -8 1 -15 -4 -15 -6 0 -10
7 -10 15 0 8 2 15 4 15 2 0 6 -7 10 -15z m-742 -117 c-7 -7 -12 -8 -12 -2 0
14 12 26 19 19 2 -3 -1 -11 -7 -17z m-1018 -44 c10 -26 7 -44 -8 -44 -20 0
-39 27 -32 45 7 20 32 19 40 -1z m531 -318 c4 -44 13 -97 21 -119 16 -44 19
-127 5 -127 -11 0 -16 22 -30 130 -20 144 -31 245 -30 275 1 48 26 -66 34
-159z m541 -381 c-11 -8 -25 -15 -30 -15 -6 1 0 7 14 15 32 19 40 18 16 0z"/>
<path d="M1684 2655 c20 -15 16 -19 -29 -28 -18 -3 -17 -5 6 -15 54 -22 64
-19 66 15 1 24 -4 32 -20 37 -36 9 -43 6 -23 -9z"/>
<path d="M1651 2501 c-8 -15 -7 -20 5 -25 28 -11 38 -6 18 9 -16 13 -17 16 -4
25 10 6 11 10 3 10 -7 0 -17 -9 -22 -19z"/>
<path d="M1767 2509 c-9 -6 -15 -14 -12 -20 4 -5 -6 -9 -22 -10 -22 -1 -18 -3
17 -11 l45 -11 -32 -13 c-40 -17 -42 -24 -7 -24 15 0 38 12 56 30 26 26 28 33
17 47 -13 15 -14 15 -17 0 -2 -10 -7 -17 -12 -17 -4 0 -6 9 -3 20 6 22 -3 25
-30 9z"/>
<path d="M704 1272 c-5 -4 -14 -22 -21 -40 -9 -27 -9 -34 2 -38 31 -12 50 1
53 37 3 36 -13 55 -34 41z"/>
<path d="M1775 2971 l-70 -6 45 -14 c25 -7 67 -15 95 -18 27 -2 56 -6 63 -8 7
-3 12 5 12 19 0 18 -7 25 -31 30 -17 3 -34 5 -38 4 -3 -1 -37 -4 -76 -7z"/>
<path d="M1267 2963 c-15 -14 -6 -24 20 -21 34 4 43 28 11 28 -14 0 -28 -3
-31 -7z"/>
<path d="M1354 2954 c3 -9 6 -19 6 -23 0 -3 18 -5 40 -3 22 2 40 7 40 11 0 17
-27 31 -58 31 -27 0 -33 -3 -28 -16z"/>
<path d="M2305 2939 c-9 -28 1 -36 14 -10 7 12 7 22 2 26 -5 3 -13 -4 -16 -16z"/>
<path d="M2038 2923 c-7 -25 -2 -94 7 -117 6 -14 5 -17 -3 -12 -18 11 -15 -29
4 -45 14 -11 14 -13 0 -21 -23 -13 -20 -45 4 -51 11 -3 20 -10 20 -16 0 -6 -9
-11 -20 -11 -11 0 -20 -7 -20 -15 0 -8 9 -19 20 -25 11 -6 20 -15 20 -20 0 -6
-9 -10 -20 -10 -29 0 -27 -38 3 -45 12 -3 51 -5 87 -3 82 4 92 24 16 33 -31 4
-61 13 -67 21 -10 12 -2 14 45 14 31 0 56 4 56 10 0 13 -43 30 -75 30 -27 0
-43 19 -25 30 6 4 33 5 58 2 42 -5 46 -3 34 11 -7 8 -35 21 -63 27 -63 15 -60
36 5 32 63 -4 62 20 -1 39 -57 17 -58 35 -3 31 54 -3 54 22 0 40 -47 15 -49
33 -2 32 20 -1 32 3 32 12 0 17 -25 30 -71 39 -30 6 -37 4 -41 -12z"/>
<path d="M3147 2902 c-27 -30 -20 -42 22 -42 22 0 41 -5 44 -12 3 -9 11 -7 27
8 26 25 19 44 -16 44 -13 0 -24 5 -24 10 0 17 -36 11 -53 -8z"/>
<path d="M2583 2893 c-7 -2 -13 -13 -13 -24 0 -16 5 -18 33 -12 42 7 56 21 37
33 -16 10 -37 12 -57 3z"/>
<path d="M2987 2878 c-17 -22 -17 -23 3 -30 29 -11 72 8 68 30 -5 26 -50 27
-71 0z"/>
<path d="M3959 2891 c11 -7 11 -9 0 -13 -18 -6 -2 -28 20 -28 10 0 23 6 30 13
14 18 -5 37 -38 37 -19 0 -22 -3 -12 -9z"/>
<path d="M2311 2885 c1 -22 16 -48 22 -38 3 5 0 19 -8 29 -8 10 -14 15 -14 9z"/>
<path d="M2485 2880 c-3 -5 6 -12 20 -16 29 -7 41 -1 30 15 -8 14 -42 14 -50
1z"/>
<path d="M1260 2852 c0 -12 8 -18 28 -19 15 0 19 1 10 4 -10 2 -18 11 -18 19
0 8 -4 14 -10 14 -5 0 -10 -8 -10 -18z"/>
<path d="M4630 2840 c-12 -8 -11 -10 8 -10 26 0 30 -20 5 -21 -15 0 -15 -2 2
-8 29 -12 47 -2 43 23 -3 23 -34 32 -58 16z"/>
<path d="M2571 2801 c-27 -7 -41 -31 -19 -31 8 0 23 -6 33 -14 18 -13 17 -14
-11 -29 l-29 -16 33 -1 c39 0 41 -15 6 -42 -25 -20 -25 -20 -5 -35 18 -12 24
-12 50 1 27 14 29 20 33 88 3 40 4 73 4 74 -5 6 -77 10 -95 5z"/>
<path d="M2325 2790 c-3 -5 1 -10 10 -10 9 0 13 5 10 10 -3 6 -8 10 -10 10 -2
0 -7 -4 -10 -10z"/>
<path d="M2490 2780 c0 -5 5 -10 10 -10 6 0 10 5 10 10 0 6 -4 10 -10 10 -5 0
-10 -4 -10 -10z"/>
<path d="M2897 2765 c6 -28 41 -95 49 -95 7 0 -8 54 -16 60 -4 3 -15 19 -24
35 l-16 30 7 -30z"/>
<path d="M3136 2748 c-40 -20 -43 -34 -4 -25 13 4 29 15 36 27 7 11 11 20 10
19 -2 -1 -20 -10 -42 -21z"/>
<path d="M3267 2752 c-22 -24 -21 -32 3 -32 15 0 20 7 20 25 0 30 -2 30 -23 7z"/>
<path d="M5280 2759 c0 -5 5 -7 10 -4 6 3 10 8 10 11 0 2 -4 4 -10 4 -5 0 -10
-5 -10 -11z"/>
<path d="M2340 2730 c0 -11 4 -20 9 -20 5 0 7 9 4 20 -3 11 -7 20 -9 20 -2 0
-4 -9 -4 -20z"/>
<path d="M3208 2739 c20 -22 14 -29 -25 -29 -21 0 -45 -5 -53 -10 -11 -7 -1
-10 35 -10 39 0 53 4 62 20 11 17 10 21 -10 31 -18 9 -20 9 -9 -2z"/>
<path d="M4727 2723 c-23 -27 -22 -33 11 -34 l27 -1 -30 -7 -30 -7 39 -7 c24
-4 45 -2 53 5 19 15 16 28 -6 28 -10 0 -25 9 -32 21 -14 20 -15 20 -32 2z"/>
<path d="M3000 2715 c-7 -9 -8 -15 -2 -15 5 0 12 7 16 15 3 8 4 15 2 15 -2 0
-9 -7 -16 -15z"/>
<path d="M5200 2710 c0 -6 7 -10 15 -10 8 0 15 2 15 4 0 2 -7 6 -15 10 -8 3
-15 1 -15 -4z"/>
<path d="M2346 2675 c-4 -14 -2 -33 3 -43 8 -13 10 -8 11 26 0 48 -5 54 -14
17z"/>
<path d="M3025 2690 c-4 -6 3 -10 14 -10 25 0 27 6 6 13 -8 4 -17 2 -20 -3z"/>
<path d="M3176 2664 c-11 -8 -16 -14 -10 -14 13 0 39 18 34 24 -3 2 -14 -2
-24 -10z"/>
<path d="M5722 2660 c0 -14 2 -19 5 -12 2 6 2 18 0 25 -3 6 -5 1 -5 -13z"/>
<path d="M4648 2663 c7 -3 16 -2 19 1 4 3 -2 6 -13 5 -11 0 -14 -3 -6 -6z"/>
<path d="M2650 2635 c-10 -13 -11 -18 -1 -28 10 -9 11 -8 5 7 -5 13 -4 17 4
12 7 -4 12 -2 12 4 0 6 5 8 12 4 7 -4 8 -3 4 4 -10 16 -21 15 -36 -3z"/>
<path d="M2895 2549 c-4 -11 -4 -23 -2 -26 9 -8 27 7 27 22 0 23 -18 27 -25 4z"/>
<path d="M2030 2497 c0 -23 14 -28 73 -30 68 -1 96 14 47 25 -85 19 -120 21
-120 5z"/>
<path d="M2035 2432 c-6 -4 -11 -12 -12 -19 -3 -17 108 -22 115 -5 2 7 3 14 1
16 -9 8 -95 14 -104 8z"/>
<path d="M4488 2403 c7 -3 16 -2 19 1 4 3 -2 6 -13 5 -11 0 -14 -3 -6 -6z"/>
<path d="M2024 2349 c-9 -15 16 -30 41 -24 11 2 28 5 38 5 9 0 17 7 17 15 0
18 -85 22 -96 4z"/>
<path d="M2023 2285 c-9 -25 23 -48 48 -34 22 11 25 39 5 39 -8 0 -21 3 -30 6
-10 4 -18 -1 -23 -11z"/>
<path d="M1562 2010 c0 -14 2 -19 5 -12 2 6 2 18 0 25 -3 6 -5 1 -5 -13z"/>
<path d="M3982 2014 c-7 -8 -8 -14 -3 -14 10 0 25 19 20 25 -2 1 -10 -3 -17
-11z"/>
<path d="M1580 1741 c0 -10 30 -24 37 -17 3 3 2 9 -2 15 -8 13 -35 15 -35 2z"/>
<path d="M1575 1160 c-3 -5 -1 -10 4 -10 6 0 11 5 11 10 0 6 -2 10 -4 10 -3 0
-8 -4 -11 -10z"/>
<path d="M1587 1130 c-17 -11 -24 -20 -18 -24 6 -4 11 -3 11 1 0 5 12 16 28
25 15 10 23 17 17 17 -5 0 -23 -9 -38 -19z"/>
<path d="M1714 1065 c-10 -8 -14 -15 -8 -15 6 0 17 7 24 15 16 19 9 19 -16 0z"/>
<path d="M1685 1029 c-11 -16 -1 -19 13 -3 7 8 8 14 3 14 -5 0 -13 -5 -16 -11z"/>
<path d="M4708 554 c-24 -47 -23 -57 8 -71 37 -17 47 -7 27 28 -14 23 -15 32
-5 38 9 6 9 11 -1 24 -11 14 -14 12 -29 -19z"/>
<path d="M4641 555 c0 -11 4 -29 9 -40 l9 -20 0 20 c0 11 -4 29 -9 40 l-9 20
0 -20z"/>
<path d="M5723 448 c-3 -6 -1 -13 3 -18 15 -14 114 -40 114 -29 0 5 5 9 11 9
5 0 8 -4 4 -9 -3 -5 5 -13 17 -17 42 -13 152 -32 164 -27 7 2 15 0 19 -6 3 -6
19 -11 36 -11 24 0 29 4 29 24 0 21 -6 24 -52 30 -29 3 -91 15 -138 26 -127
28 -200 38 -207 28z"/>
<path d="M4660 443 c0 -10 35 -45 57 -57 8 -4 11 -2 7 6 -7 17 -64 62 -64 51z"/>
<path d="M1220 152 c0 -9 -57 -45 -84 -52 -10 -3 -23 -16 -27 -28 -6 -15 -5
-21 1 -17 6 3 10 1 10 -6 0 -8 6 -6 18 4 10 10 26 17 36 17 11 0 14 4 10 12
-5 8 -2 9 9 5 10 -3 17 -2 17 3 0 6 9 10 19 10 26 0 34 15 21 40 -10 20 -30
28 -30 12z"/>
<path d="M5920 101 c0 -25 6 -27 13 -6 4 8 2 17 -3 20 -6 4 -10 -3 -10 -14z"/>
<path d="M4170 103 c-14 -2 -36 -6 -50 -9 -23 -6 -24 -7 -5 -14 46 -19 105 -6
105 22 0 8 -6 8 -50 1z"/>
<path d="M5963 90 c-8 -12 -9 -21 -3 -25 6 -4 8 -10 5 -15 -8 -13 17 -50 33
-50 7 0 10 5 7 10 -3 6 0 10 9 10 8 0 17 -6 19 -12 4 -10 8 -9 16 2 7 10 11
11 11 3 0 -8 13 -13 30 -13 29 0 30 2 30 44 0 39 -2 44 -20 39 -12 -3 -20 -14
-21 -27 0 -20 -1 -20 -10 2 -5 13 -13 21 -18 17 -6 -3 -8 -12 -4 -20 7 -21
-34 -20 -54 1 -13 13 -14 20 -5 35 10 15 9 19 -1 19 -6 0 -18 -9 -24 -20z"/>
<path d="M6006 71 c-4 -5 -2 -12 3 -15 5 -4 12 -2 15 3 4 5 2 12 -3 15 -5 4
-12 2 -15 -3z"/>
<path d="M5915 39 c-9 -14 -2 -20 14 -10 8 6 9 11 3 15 -6 3 -14 1 -17 -5z"/>
<path d="M5840 30 c0 -5 5 -10 10 -10 6 0 10 5 10 10 0 6 -4 10 -10 10 -5 0
-10 -4 -10 -10z"/>
<path d="M1096 15 c-11 -8 -15 -15 -9 -15 6 0 16 7 23 15 16 19 11 19 -14 0z"/>
<path d="M943 3 c9 -2 23 -2 30 0 6 3 -1 5 -18 5 -16 0 -22 -2 -12 -5z"/>
<path d="M5888 3 c6 -2 18 -2 25 0 6 3 1 5 -13 5 -14 0 -19 -2 -12 -5z"/>
<path d="M5938 3 c6 -2 18 -2 25 0 6 3 1 5 -13 5 -14 0 -19 -2 -12 -5z"/>
</g>
</svg>
