<?xml version="1.0" standalone="no"?>
<!DOCTYPE svg PUBLIC "-//W3C//DTD SVG 20010904//EN"
 "http://www.w3.org/TR/2001/REC-SVG-20010904/DTD/svg10.dtd">
<svg version="1.0" xmlns="http://www.w3.org/2000/svg"
 width="2000.000000pt" height="2000.000000pt" viewBox="0 0 2000.000000 2000.000000"
 preserveAspectRatio="xMidYMid meet">

<g transform="translate(0.000000,2000.000000) scale(0.100000,-0.100000)"
fill="#000000" stroke="none">
<path d="M0 9995 l0 -9995 10000 0 10000 0 0 9995 0 9995 -10000 0 -10000 0 0
-9995z m10110 7704 c27 -6 50 -15 50 -20 0 -6 4 -8 9 -4 14 8 92 -35 84 -48
-3 -5 -1 -7 4 -4 14 9 88 -51 87 -69 -1 -8 2 -12 6 -9 9 5 80 -94 80 -111 0
-6 8 -26 17 -45 19 -37 25 -206 10 -263 -36 -134 -153 -265 -285 -318 -48 -19
-76 -23 -173 -23 -113 0 -116 1 -190 37 -109 55 -185 134 -236 244 -34 75 -43
213 -20 295 16 54 55 135 79 165 37 46 105 103 116 99 7 -3 10 -1 7 5 -7 11
42 38 115 61 63 21 166 24 240 8z m8594 -454 c-4 -8 -10 -15 -15 -15 -5 0 -9
-6 -9 -13 0 -15 -104 -148 -125 -160 -8 -4 -15 -13 -15 -18 0 -19 -93 -118
-104 -112 -6 3 -7 2 -3 -3 4 -4 -7 -24 -25 -43 -94 -98 -152 -150 -161 -144
-6 3 -7 2 -4 -4 6 -10 -64 -73 -81 -73 -5 0 -17 -10 -26 -22 -9 -13 -14 -16
-9 -8 4 8 -10 -2 -30 -23 -35 -34 -49 -42 -70 -38 -5 1 -6 -3 -3 -8 6 -9 -65
-61 -83 -61 -5 0 -11 -4 -13 -9 -6 -16 -199 -121 -210 -115 -6 4 -8 3 -5 -3 7
-11 -60 -46 -74 -38 -5 4 -9 1 -9 -5 0 -6 -4 -8 -10 -5 -5 3 -10 2 -10 -3 0
-21 -351 -149 -371 -136 -5 3 -9 0 -9 -6 0 -6 -8 -10 -17 -9 -10 1 -31 -3 -48
-10 -16 -7 -48 -13 -71 -14 -23 -1 -40 -5 -38 -8 4 -8 -137 -32 -144 -25 -2 3
-13 1 -23 -5 -11 -5 -55 -11 -98 -13 -43 -2 -83 -6 -87 -8 -22 -13 -329 -17
-504 -8 -107 6 -202 12 -210 12 -104 3 -983 117 -988 128 -1 3 -18 4 -37 2
-19 -2 -35 0 -35 4 0 5 -19 9 -43 10 -23 0 -163 17 -312 37 -459 62 -827 100
-1095 112 -192 8 -324 17 -382 24 -82 10 -570 -6 -712 -23 -165 -21 -342 -57
-476 -97 -58 -17 -115 -32 -127 -33 -11 0 -20 -3 -18 -6 2 -3 -20 -14 -48 -24
-64 -22 -266 -122 -327 -161 -25 -15 -51 -28 -57 -28 -7 0 -11 -3 -8 -5 4 -5
-64 -57 -114 -87 -17 -10 -40 -31 -150 -134 -35 -33 -68 -58 -73 -55 -5 3 -7
1 -6 -4 2 -6 -24 -41 -58 -79 -33 -37 -86 -105 -119 -150 -32 -46 -62 -83 -67
-83 -4 0 -7 -3 -6 -7 3 -11 -52 -103 -61 -103 -4 0 -8 -6 -8 -12 0 -18 -79
-159 -85 -153 -2 3 -5 -1 -5 -9 0 -26 -25 -76 -36 -69 -5 3 -7 1 -4 -4 8 -13
-57 -165 -67 -156 -4 4 -4 -1 0 -11 5 -13 4 -17 -3 -13 -7 5 -9 0 -6 -11 2
-11 -2 -25 -10 -33 -7 -8 -12 -20 -9 -28 3 -8 0 -11 -6 -7 -6 4 -8 -2 -5 -14
3 -11 0 -20 -6 -20 -13 0 -14 142 -1 645 8 349 12 401 31 389 5 -3 6 3 2 12
-5 13 -3 15 7 9 9 -5 11 -4 6 4 -4 6 0 24 10 39 10 15 19 32 20 39 4 25 68
121 78 116 5 -3 6 -1 2 5 -4 7 -2 17 4 24 5 7 27 38 47 68 57 86 144 190 156
187 6 -1 11 3 12 8 2 22 27 55 37 49 6 -4 8 -3 5 3 -8 13 57 76 67 66 4 -5 6
-2 4 5 -1 8 5 19 15 25 10 7 41 33 68 59 28 27 56 45 62 41 5 -3 7 -2 4 4 -6
9 107 100 115 92 2 -2 15 9 30 24 15 15 32 27 38 27 6 0 19 8 30 18 17 16 135
82 146 82 3 0 2 -5 -2 -12 -4 -7 -3 -8 5 -4 6 4 9 11 6 16 -3 5 22 23 55 40
49 25 65 29 76 19 12 -9 13 -9 9 3 -5 11 11 22 57 42 35 15 70 28 78 30 8 1
24 7 35 13 28 14 161 57 280 88 83 22 103 25 120 14 19 -11 19 -11 5 6 -14 17
-13 18 7 13 13 -4 25 -3 28 2 4 7 144 33 161 29 5 -1 17 1 27 6 9 4 29 5 42 3
14 -3 25 -2 25 2 0 8 51 13 142 14 36 1 64 4 62 7 -13 22 644 14 892 -11 84
-8 231 -20 264 -21 13 -1 122 -14 355 -44 140 -17 202 -26 215 -31 8 -4 40 -8
70 -11 30 -2 56 -7 58 -12 1 -4 17 -5 34 -3 27 4 30 2 24 -13 -5 -15 -4 -16 8
-6 11 9 28 10 73 1 32 -6 74 -13 93 -16 19 -2 44 -7 55 -11 11 -4 27 -7 35 -8
57 -5 168 -30 164 -37 -3 -4 2 -5 11 -2 8 4 34 2 58 -4 23 -6 58 -14 77 -17
19 -3 53 -11 75 -16 22 -5 49 -11 60 -13 43 -7 421 -88 435 -93 16 -6 30 -8
68 -11 13 -1 21 -5 19 -9 -3 -5 9 -8 26 -9 18 0 133 -19 257 -42 124 -24 243
-45 265 -47 22 -3 58 -8 80 -12 22 -4 46 -6 54 -4 7 1 20 -1 30 -4 9 -4 84
-10 166 -12 83 -3 151 -9 153 -13 1 -4 24 -4 50 1 26 4 108 10 182 13 74 3
146 8 160 10 14 3 39 7 55 10 55 8 179 36 235 52 30 9 64 17 75 18 11 1 30 8
43 15 12 6 27 9 32 6 6 -3 10 -2 10 3 0 12 78 34 92 26 7 -4 8 -3 4 4 -4 7 6
15 26 20 18 6 71 26 116 46 46 20 88 34 92 31 5 -3 10 -1 12 4 4 10 360 177
371 173 4 -1 7 2 7 6 0 5 19 17 43 28 23 10 59 29 79 42 21 13 42 21 49 16 7
-4 10 -3 6 2 -3 5 24 25 61 44 36 19 72 41 80 48 18 16 23 15 16 -3z m-17372
-9 c10 -7 14 -17 10 -21 -4 -5 -2 -5 5 -1 15 9 266 -127 256 -139 -5 -4 -3 -5
3 -2 6 4 40 -7 75 -24 35 -17 93 -45 129 -62 36 -17 68 -35 71 -40 3 -5 8 -8
10 -6 11 7 78 -24 73 -33 -4 -6 -2 -8 4 -5 15 10 43 -3 35 -16 -3 -6 -1 -7 5
-3 6 3 73 -18 150 -48 76 -30 151 -58 165 -61 15 -4 27 -10 27 -14 0 -3 12 -7
27 -8 15 0 29 -6 31 -12 2 -6 7 -9 11 -6 9 5 148 -31 174 -46 10 -5 21 -8 25
-5 4 2 39 -2 77 -10 39 -8 93 -16 120 -19 28 -3 70 -7 95 -11 79 -10 441 -6
550 5 58 7 154 19 213 27 60 9 116 13 125 9 9 -3 13 -3 9 2 -9 9 280 65 306
59 9 -2 17 0 17 6 0 6 7 8 15 5 8 -4 17 -2 20 3 3 5 19 8 35 6 16 -2 28 0 25
3 -2 4 24 13 58 20 34 7 145 30 247 52 102 22 196 42 210 44 14 3 64 13 112
23 64 14 90 16 99 8 9 -8 10 -8 6 0 -8 15 13 23 47 20 15 -2 23 1 19 7 -4 6 4
8 20 5 15 -3 28 -1 29 4 2 5 29 10 60 11 31 1 54 5 52 9 -3 4 4 7 13 7 31 2
67 8 86 16 9 4 29 4 43 1 17 -5 24 -3 19 4 -4 7 -1 10 6 9 8 -2 28 0 44 4 17
4 46 9 65 12 19 3 88 14 153 25 64 11 121 19 125 18 4 -1 17 2 30 6 15 5 29 3
39 -6 11 -8 14 -9 10 -1 -9 14 0 16 223 42 438 53 938 77 1240 61 107 -6 202
-12 210 -15 8 -2 42 -6 75 -10 210 -22 695 -141 679 -167 -3 -4 1 -5 9 -2 16
6 208 -73 219 -90 4 -6 8 -7 8 -3 0 10 175 -83 249 -132 29 -20 61 -40 69 -46
130 -82 388 -307 375 -328 -3 -5 -2 -7 4 -4 12 7 135 -137 131 -154 -2 -7 2
-13 9 -14 17 0 55 -53 47 -66 -4 -7 -3 -9 3 -6 12 8 66 -69 58 -83 -3 -5 0
-12 6 -16 8 -4 9 -3 5 4 -4 7 -5 12 -2 12 3 0 10 -10 17 -21 9 -17 8 -20 -3
-14 -7 5 -1 -3 15 -18 28 -27 36 -43 15 -32 -7 4 -6 0 3 -7 9 -7 34 -47 55
-88 l39 -75 3 -225 c2 -124 6 -355 8 -515 l4 -290 -21 55 c-11 30 -24 64 -29
75 -5 11 -11 27 -12 35 -2 8 -6 17 -9 20 -3 3 -25 48 -49 100 -24 52 -63 130
-87 174 -23 43 -40 83 -36 90 3 6 2 8 -2 3 -5 -4 -17 5 -27 20 -21 33 -23 47
-5 37 8 -5 8 -2 -2 9 -16 20 -25 23 -15 5 16 -29 -15 11 -61 77 -26 38 -48 75
-49 82 -1 7 -6 16 -11 20 -4 4 -5 1 -1 -7 4 -8 -1 -4 -11 10 -10 13 -31 39
-46 57 -16 19 -25 37 -21 44 4 7 3 9 -2 6 -6 -3 -61 44 -124 104 -63 61 -136
127 -162 147 -40 30 -45 38 -35 51 10 14 10 14 -4 4 -12 -10 -23 -7 -57 16
-23 15 -39 31 -35 36 5 4 3 5 -3 2 -6 -3 -33 8 -60 26 -71 46 -244 130 -354
172 -177 68 -443 128 -685 156 -125 14 -603 26 -676 17 -50 -6 -151 -12 -379
-23 -304 -15 -724 -59 -1204 -126 -159 -22 -295 -38 -302 -35 -7 3 -14 1 -16
-4 -2 -4 -28 -10 -58 -13 -30 -3 -131 -17 -225 -31 -213 -32 -513 -68 -540
-64 -11 1 -24 0 -30 -4 -38 -23 -809 -45 -843 -24 -7 4 -40 9 -75 10 -82 5
-288 37 -283 45 2 3 -15 7 -37 8 -23 0 -55 7 -72 14 -16 7 -34 11 -39 10 -17
-4 -266 81 -266 91 0 5 -4 7 -9 3 -17 -10 -62 17 -56 34 5 13 4 14 -6 4 -15
-15 -33 -17 -24 -3 3 5 0 8 -7 5 -17 -6 -264 120 -261 134 2 5 -3 8 -10 5 -7
-2 -32 9 -55 26 -23 16 -44 30 -47 30 -10 0 -190 133 -198 147 -4 7 -14 13
-22 13 -8 0 -20 9 -27 20 -7 11 -17 20 -23 20 -6 0 -56 46 -113 103 -85 85
-100 105 -90 117 11 12 10 12 -3 2 -13 -10 -24 -2 -67 51 -28 34 -58 70 -67
80 -8 9 -15 19 -15 22 0 3 -12 16 -26 29 -26 21 -27 55 -2 40 7 -4 8 -2 4 5
-6 9 -11 9 -21 1 -10 -8 -21 1 -49 39 -20 27 -36 51 -36 55 0 10 14 6 32 -8z
m8400 -774 c56 -12 122 -16 278 -16 179 0 216 3 295 22 49 13 100 30 113 38
37 24 37 10 0 -21 -84 -71 -241 -115 -413 -115 -132 0 -240 21 -330 65 -72 35
-90 47 -114 78 -11 14 -2 12 42 -8 30 -14 88 -33 129 -43z m-2267 -421 c-6 -4
-82 -51 -170 -103 -154 -91 -261 -157 -555 -338 -209 -129 -243 -148 -373
-210 -277 -132 -537 -190 -786 -176 -134 7 -238 28 -206 41 313 124 418 170
1015 452 367 173 714 321 780 333 63 11 306 12 295 1z m5485 -40 c169 -69 502
-219 833 -375 320 -152 638 -293 767 -341 41 -15 79 -31 83 -35 14 -12 -103
-31 -228 -37 -263 -12 -553 61 -842 212 -105 55 -258 146 -578 345 -136 84
-295 180 -367 221 -43 24 -78 48 -78 53 0 5 67 7 153 4 151 -5 153 -5 257 -47z
m-2814 -13 c34 -37 34 -39 34 -130 0 -51 -13 -754 -30 -1563 -16 -808 -32
-1614 -35 -1790 -3 -176 -8 -376 -11 -444 -6 -113 -8 -126 -30 -148 -38 -37
-130 -23 -148 24 -7 18 -15 341 -62 2680 -29 1445 -31 1346 36 1391 31 21 44
23 123 20 88 -3 89 -3 123 -40z m-1938 -63 c28 -11 52 -22 52 -26 0 -4 -39
-39 -87 -77 -49 -39 -221 -181 -383 -317 -162 -135 -349 -282 -414 -326 -197
-133 -390 -216 -585 -253 -105 -20 -306 -32 -314 -19 -3 5 22 24 56 43 94 51
325 196 602 378 646 426 979 629 1010 619 6 -2 34 -12 63 -22z m3736 -5 c102
-53 455 -267 561 -340 233 -161 803 -527 970 -623 97 -56 89 -63 -62 -53 -277
18 -507 100 -770 276 -65 43 -264 201 -443 351 -179 149 -351 291 -382 316
-32 24 -58 48 -58 52 0 6 100 48 120 50 3 1 32 -13 64 -29z m-6295 -44 c-9
-10 -176 -79 -259 -108 -353 -122 -692 -142 -976 -57 l-79 23 45 14 c25 7 135
19 245 27 287 21 888 84 939 99 19 5 90 7 85 2z m8906 -16 c273 -35 517 -60
780 -80 143 -10 280 -25 305 -33 l45 -14 -70 -21 c-135 -41 -256 -54 -435 -49
-180 6 -297 26 -464 78 -97 30 -346 127 -346 135 0 7 32 4 185 -16z m-5825
-217 c33 -26 59 -50 58 -54 -6 -15 -468 -489 -553 -567 -219 -201 -463 -334
-703 -381 -99 -20 -212 -34 -212 -27 0 3 24 21 53 42 115 84 396 309 676 543
355 295 601 491 617 491 2 0 31 -21 64 -47z m2713 -15 c112 -85 182 -142 552
-449 331 -275 575 -469 657 -523 26 -17 48 -34 48 -38 0 -9 -78 -1 -187 18
-228 40 -479 168 -685 348 -112 98 -582 584 -585 604 -2 11 19 34 53 60 31 23
59 42 61 42 2 0 41 -28 86 -62z m-2587 -790 c4 -6 3 -8 -4 -4 -6 3 -13 2 -17
-4 -3 -5 -1 -10 6 -10 7 0 10 -3 6 -6 -3 -3 -11 -3 -17 1 -8 5 -8 11 1 21 14
17 16 17 25 2z m-145 -185 c13 -16 12 -17 -3 -4 -17 13 -22 21 -14 21 2 0 10
-8 17 -17z m2670 -10 c12 -16 12 -17 -2 -6 -9 7 -20 9 -24 5 -5 -4 -5 -1 -1 6
9 16 11 15 27 -5z m213 -439 c3 -8 2 -12 -4 -9 -6 3 -10 10 -10 16 0 14 7 11
14 -7z m130 -32 c3 -5 -1 -9 -9 -9 -8 0 -12 4 -9 9 3 4 7 8 9 8 2 0 6 -4 9 -8z
m-58 -74 l29 -33 -32 29 c-18 17 -33 31 -33 33 0 8 8 1 36 -29z m-556 -44 c0
-8 -19 -13 -24 -6 -3 5 1 9 9 9 8 0 15 -2 15 -3z m841 -131 c13 -17 13 -17 -6
-3 -11 8 -22 16 -24 17 -2 2 0 3 6 3 6 0 17 -8 24 -17z m-3421 -1782 c177
-119 415 -227 900 -409 557 -210 756 -294 981 -417 255 -138 421 -258 570
-412 239 -247 350 -496 366 -823 16 -339 -89 -601 -344 -852 -155 -154 -247
-218 -312 -218 -36 0 -49 6 -76 33 -63 63 -59 119 13 184 26 23 90 78 142 121
168 139 275 296 322 470 27 103 29 320 4 437 -71 322 -306 595 -735 851 -136
81 -531 282 -806 408 -673 310 -1060 556 -1235 786 -30 39 -24 36 44 -28 43
-40 118 -99 166 -131z m1531 -1322 c21 -21 22 -27 16 -203 -4 -100 -19 -824
-34 -1611 -15 -786 -31 -1403 -35 -1370 -4 33 -19 686 -33 1450 -14 765 -28
1463 -31 1551 -6 156 -6 162 15 183 27 27 75 27 102 0z m-661 -2405 c21 -20
25 -34 24 -77 -1 -76 -31 -133 -124 -233 -130 -141 -197 -271 -220 -433 -23
-155 4 -327 76 -480 57 -121 121 -207 242 -322 120 -116 236 -204 507 -389
368 -251 509 -364 647 -517 125 -140 201 -274 255 -449 25 -84 27 -100 27
-284 0 -184 -2 -200 -27 -285 -36 -116 -84 -218 -147 -309 -52 -75 -177 -208
-250 -266 l-40 -32 0 27 c0 37 14 60 80 132 75 82 142 183 190 286 65 140 75
188 74 392 0 167 -2 186 -27 268 -89 288 -284 493 -743 783 -498 314 -586 377
-735 521 -282 274 -410 602 -369 948 28 238 131 436 328 633 128 127 172 143
232 86z"/>
<path d="M18614 17148 l-19 -23 23 19 c21 18 27 26 19 26 -2 0 -12 -10 -23
-22z"/>
<path d="M8979 16513 c-13 -16 -12 -17 4 -4 16 13 21 21 13 21 -2 0 -10 -8
-17 -17z"/>
<path d="M8936 16378 c3 -5 10 -6 15 -3 13 9 11 12 -6 12 -8 0 -12 -4 -9 -9z"/>
<path d="M8597 16269 c7 -7 15 -10 18 -7 3 3 -2 9 -12 12 -14 6 -15 5 -6 -5z"/>
<path d="M9246 16252 c-3 -5 1 -9 9 -9 8 0 12 4 9 9 -3 4 -7 8 -9 8 -2 0 -6
-4 -9 -8z"/>
</g>
</svg>
