<?xml version="1.0" standalone="no"?>
<!DOCTYPE svg PUBLIC "-//W3C//DTD SVG 20010904//EN"
 "http://www.w3.org/TR/2001/REC-SVG-20010904/DTD/svg10.dtd">
<svg version="1.0" xmlns="http://www.w3.org/2000/svg"
 width="600.000000pt" height="358.000000pt" viewBox="0 0 600.000000 358.000000"
 preserveAspectRatio="xMidYMid meet">

<g transform="translate(0.000000,358.000000) scale(0.100000,-0.100000)"
fill="#000000" stroke="none">
<path d="M5040 3290 c-30 -4 -66 -12 -80 -18 -45 -18 -96 -92 -123 -179 -34
-105 -36 -188 -7 -273 28 -82 38 -94 35 -37 -2 27 2 53 10 64 11 15 13 3 8
-83 -5 -86 -3 -106 14 -145 13 -28 17 -52 12 -64 -16 -41 -10 -93 14 -116 37
-35 102 -77 131 -85 25 -6 42 -21 34 -29 -2 -2 -22 5 -45 15 l-42 19 -21 -26
c-24 -30 -26 -53 -5 -53 8 0 15 -6 15 -12 0 -9 3 -9 9 1 7 11 11 10 22 -7 7
-11 19 -18 26 -15 14 6 18 -22 4 -31 -9 -6 -23 -116 -24 -191 -1 -55 67 -262
77 -235 3 8 17 46 31 84 27 73 31 90 15 66 -7 -10 -9 42 -7 159 l2 175 30 8
c35 9 48 -1 48 -36 0 -16 6 -28 18 -31 11 -4 19 -11 19 -16 0 -6 5 -7 11 -3 6
3 7 9 2 13 -5 3 -17 32 -26 64 -20 65 -33 74 -77 59 -16 -6 -30 -7 -30 -2 0 5
15 13 33 19 17 6 43 21 57 32 25 20 25 20 -17 0 -54 -27 -74 -26 -96 4 -17 24
-17 26 9 77 l26 52 -24 21 c-22 19 -23 23 -10 31 8 6 16 24 18 42 4 29 1 32
-24 32 -33 0 -68 19 -39 21 26 2 30 4 52 16 19 12 19 12 1 13 -15 0 -16 3 -7
14 9 11 9 16 -1 23 -15 9 -16 17 -22 122 l-4 74 -48 19 c-27 10 -57 17 -66 14
-26 -6 -22 3 19 43 31 30 47 37 112 47 42 7 101 13 132 13 l57 1 21 -52 c11
-29 26 -74 33 -100 12 -46 28 -65 28 -33 0 8 6 15 14 15 8 0 18 9 21 21 7 22
1 34 -18 34 -7 0 -11 11 -9 25 6 50 4 96 -6 125 -6 17 -14 44 -19 60 -6 19
-15 29 -26 29 -9 -1 -15 1 -13 5 2 3 -9 21 -24 39 -22 27 -43 38 -101 53 -78
20 -76 20 -159 9z m-136 -565 c-4 -8 -8 -15 -10 -15 -2 0 -4 7 -4 15 0 8 4 15
10 15 5 0 7 -7 4 -15z"/>
<path d="M2940 3252 c0 -6 -13 -13 -29 -17 -31 -7 -101 -70 -101 -92 0 -8 -7
-25 -16 -38 -10 -16 -17 -53 -20 -102 -2 -43 -4 -78 -4 -78 -7 0 -5 -47 2 -51
4 -3 6 -10 3 -15 -4 -5 -1 -9 5 -9 8 0 10 -9 6 -24 -8 -33 46 -114 80 -121 13
-3 35 -7 49 -10 28 -6 32 -22 10 -51 -8 -10 -15 -22 -15 -25 0 -13 44 -18 52
-6 6 9 8 9 8 0 0 -15 38 -17 59 -4 11 7 9 12 -10 22 -13 7 -30 12 -36 11 -19
-4 -16 19 5 34 15 12 15 15 2 25 -13 9 -12 10 3 5 9 -3 17 -2 18 2 5 48 24 92
39 92 5 0 19 -18 30 -39 25 -50 55 -71 102 -71 51 0 87 15 97 42 5 13 13 33
18 46 l8 23 23 -21 c19 -18 22 -18 22 -4 0 9 -7 22 -15 28 -8 6 -17 22 -20 35
-5 30 -15 40 -15 17 0 -14 -5 -16 -22 -9 -13 4 -79 8 -148 9 -156 3 -291 14
-285 24 3 5 2 16 -1 25 -6 15 -9 14 -20 -6 -9 -16 -13 -19 -14 -9 0 9 5 21 12
28 6 6 13 28 15 49 5 55 21 98 44 119 47 43 334 50 379 9 10 -9 23 -31 30 -48
29 -78 31 -82 40 -67 5 8 5 21 1 29 -5 9 -6 22 -4 29 3 7 -3 22 -13 33 -17 19
-17 20 1 13 18 -7 18 -7 -1 19 -10 14 -22 27 -26 27 -5 0 -8 7 -8 15 0 17 -30
34 -49 27 -10 -3 -12 0 -8 12 4 10 3 15 -3 11 -6 -3 -10 -1 -10 5 0 6 -8 10
-17 9 -31 -3 -44 1 -39 10 3 5 -3 11 -14 14 -11 3 -20 2 -20 -3 0 -4 -11 -7
-25 -6 -14 0 -25 5 -25 9 0 5 -5 5 -11 2 -21 -13 -81 -7 -100 11 -10 9 -19 12
-19 6z m-20 -412 c0 -5 10 -10 23 -11 16 -1 11 -5 -18 -15 -22 -8 -48 -17 -57
-20 -10 -4 -18 -10 -18 -15 0 -11 3 -11 34 1 30 11 56 4 56 -16 0 -8 9 -14 20
-14 11 0 20 -4 20 -10 0 -14 -39 -22 -90 -18 -36 2 -47 8 -60 30 -12 23 -13
31 -2 48 6 11 12 27 12 35 0 11 11 15 40 15 22 0 40 -4 40 -10z m195 -20 c-16
-18 -17 -23 -5 -45 15 -29 35 -32 48 -9 7 12 19 15 46 12 20 -2 36 -2 36 -1 0
2 -19 13 -42 23 -24 11 -35 20 -25 20 9 0 17 5 17 11 0 6 17 9 43 7 41 -3 42
-4 45 -42 2 -22 -2 -50 -9 -63 -11 -20 -20 -23 -71 -23 -68 0 -98 12 -98 40 0
11 -5 29 -12 39 -14 22 3 51 30 51 13 0 12 -3 -3 -20z"/>
<path d="M875 3243 c-63 -14 -94 -31 -133 -71 -56 -60 -77 -128 -69 -233 4
-57 2 -79 -8 -82 -35 -14 -20 -122 21 -145 26 -14 43 -94 44 -198 0 -97 -3
-104 -52 -104 -12 0 -44 -11 -72 -23 -28 -13 -80 -32 -116 -41 -36 -10 -79
-25 -96 -34 -84 -46 -146 -86 -151 -99 -4 -10 -20 -13 -57 -11 -48 3 -51 2
-54 -23 -3 -28 28 -65 35 -41 3 6 8 12 12 12 8 0 -3 -84 -20 -160 -6 -25 -14
-81 -19 -125 -7 -76 -43 -197 -76 -258 -14 -24 -14 -28 0 -33 9 -4 16 -18 16
-35 0 -15 4 -38 9 -51 5 -13 17 -66 26 -118 9 -52 19 -103 22 -113 9 -33 63
-57 127 -57 l59 0 -7 -62 c-4 -35 -14 -99 -22 -143 -7 -44 -14 -92 -14 -106 0
-17 -9 -33 -24 -43 -24 -15 -24 -16 -9 -68 12 -42 15 -108 13 -315 -1 -251 0
-262 19 -272 11 -6 28 -11 39 -11 25 0 32 -25 32 -112 l0 -68 425 0 c398 0
425 1 426 18 1 33 27 279 48 452 36 294 62 433 96 513 6 14 2 17 -20 17 -15 0
-60 22 -106 52 -76 51 -80 56 -109 124 -34 83 -60 183 -60 237 0 26 9 50 30
79 21 29 30 53 31 82 0 56 31 169 50 189 9 9 19 43 23 79 4 35 14 73 21 84 8
12 22 47 33 77 24 71 104 161 153 172 19 4 46 14 61 21 15 8 36 14 48 14 11 0
20 5 20 11 0 7 -11 8 -29 4 -25 -5 -33 -2 -52 24 -30 40 -39 39 -39 -5 0 -46
-14 -36 -30 22 -12 41 -18 48 -57 65 -47 20 -67 25 -44 10 11 -7 11 -12 -2
-32 -14 -20 -17 -20 -23 -6 -3 10 -4 26 -1 37 3 11 1 20 -4 20 -5 0 -9 -5 -9
-12 0 -6 -7 -3 -15 8 -14 18 -14 18 -15 -6 0 -28 -6 -39 -35 -60 -18 -13 -19
-13 -9 0 13 17 30 89 19 78 -5 -4 -13 -16 -19 -26 -22 -37 -80 -112 -83 -108
-3 2 7 26 21 54 25 49 25 50 5 55 -20 5 -21 10 -14 79 11 117 13 132 23 158 5
14 13 48 17 76 8 63 -9 102 -57 133 -33 21 -33 21 -7 21 35 0 58 27 61 72 3
54 -22 78 -84 78 -51 0 -60 10 -29 37 18 15 19 19 5 45 -8 15 -12 28 -8 28 3
0 -1 11 -10 24 -20 31 -8 40 45 31 85 -14 123 -83 118 -212 -1 -35 0 -65 3
-68 3 -3 6 30 7 74 1 57 -4 99 -19 148 -18 61 -26 73 -73 110 -82 64 -135 81
-202 66z m114 -401 c10 -10 22 -29 25 -44 6 -26 5 -27 -31 -24 -38 4 -38 4
-41 51 -4 61 6 90 19 57 5 -13 18 -31 28 -40z m44 -139 c-7 -2 -19 -2 -25 0
-7 3 -2 5 12 5 14 0 19 -2 13 -5z m-33 -24 c0 -5 -11 -9 -24 -9 -13 0 -26 -5
-28 -12 -4 -12 -11 -10 -57 17 -23 13 -20 14 42 14 37 0 67 -4 67 -10z m24
-45 c3 -8 -5 -32 -20 -52 l-25 -37 2 35 c2 19 0 40 -4 46 -3 6 -4 14 0 18 12
12 41 6 47 -10z m406 -404 c0 -5 -5 -10 -11 -10 -5 0 -7 5 -4 10 3 6 8 10 11
10 2 0 4 -4 4 -10z"/>
<path d="M1840 3000 l-23 -20 22 0 c35 0 15 -18 -29 -25 -29 -5 -47 -16 -65
-39 -38 -50 -65 -117 -65 -164 0 -56 -20 -46 -21 11 -1 40 -2 40 -9 12 -4 -16
-8 -54 -9 -84 -1 -41 -4 -52 -15 -48 -11 4 -13 -14 -8 -106 2 -62 9 -115 15
-118 5 -4 7 -16 5 -27 -3 -12 1 -30 9 -42 22 -32 8 -36 -21 -7 -30 30 -35 21
-8 -14 29 -37 34 -59 17 -76 -12 -11 -19 -12 -29 -3 -12 9 -13 7 -9 -8 2 -11
-7 -35 -21 -57 -14 -21 -31 -55 -36 -76 -7 -26 -20 -44 -38 -53 -70 -36 -130
-153 -87 -170 10 -4 15 1 15 16 0 35 38 104 65 118 22 12 27 11 40 -6 14 -18
14 -18 15 -1 0 26 31 18 48 -13 13 -25 11 -77 -4 -115 -7 -18 -6 -19 11 -5 10
8 21 13 24 10 12 -10 11 96 -2 120 -7 14 -24 31 -39 38 -24 11 -26 15 -17 44
14 52 73 131 123 166 l46 33 0 -28 c1 -48 39 -116 97 -170 l55 -52 -39 -19
c-59 -30 -69 -57 -48 -127 19 -66 31 -69 16 -4 -13 54 -14 89 -3 72 6 -9 12
-7 25 7 9 11 17 25 17 30 0 13 17 13 25 0 4 -6 15 -6 30 0 l25 9 -6 -77 c-3
-42 -10 -92 -16 -110 -13 -44 -4 -52 13 -10 8 18 31 66 51 106 20 41 30 68 21
60 -13 -11 -18 -9 -32 12 -9 13 -26 33 -38 44 -13 11 -23 22 -23 26 0 3 16 14
36 25 33 18 124 125 124 147 0 6 -18 -6 -40 -26 -44 -39 -55 -43 -67 -22 -4 7
-25 19 -45 25 -47 16 -48 27 -3 35 39 8 57 26 26 26 -12 0 -21 4 -21 9 0 5
-23 11 -51 15 -28 4 -59 12 -70 19 -16 10 -22 9 -30 -3 -7 -11 -8 -9 -4 10 4
18 -3 39 -26 74 -28 42 -33 60 -42 152 -13 143 9 254 64 323 21 26 53 55 71
65 33 18 35 18 75 -2 22 -12 62 -42 89 -68 31 -30 42 -38 31 -21 -9 15 -24 38
-33 52 -9 14 -13 25 -9 25 4 0 1 7 -6 17 -12 14 -12 16 1 11 8 -2 31 -27 51
-55 19 -29 43 -62 52 -75 18 -25 -29 86 -48 114 -6 10 -32 33 -58 53 -54 41
-101 46 -137 15z m-60 -720 c0 -5 -4 -10 -10 -10 -5 0 -10 5 -10 10 0 6 5 10
10 10 6 0 10 -4 10 -10z"/>
<path d="M4208 2987 c-94 -47 -201 -217 -231 -367 -8 -41 -20 -136 -27 -210
-6 -74 -16 -175 -23 -225 l-13 -90 -37 -18 c-28 -13 -37 -22 -33 -35 18 -57
36 -140 36 -161 0 -14 9 -35 21 -47 19 -21 20 -24 5 -52 -22 -43 -21 -117 3
-150 42 -60 53 -103 41 -162 -6 -30 -10 -77 -8 -105 3 -49 3 -50 39 -53 29 -2
42 3 68 27 18 17 37 31 41 31 29 0 24 110 -15 338 -3 17 -2 32 3 32 14 0 30
-73 43 -202 15 -145 5 -192 -46 -226 -19 -12 -45 -22 -58 -22 -46 0 -71 -21
-89 -74 -17 -53 -14 -110 6 -102 68 29 81 29 142 -2 57 -28 122 -47 247 -72
33 -7 67 -20 78 -31 10 -10 37 -23 60 -28 67 -15 64 -17 -51 -36 -19 -3 -42
-8 -50 -10 -8 -2 -53 -9 -100 -14 -89 -11 -243 4 -285 26 -26 14 -95 13 -114
-1 -11 -8 -13 -8 -7 2 4 7 -13 -2 -38 -19 -25 -17 -49 -41 -52 -53 -3 -13 3
-90 13 -172 16 -136 20 -150 40 -159 13 -5 25 -15 27 -22 3 -7 6 -128 7 -268
l1 -255 498 0 498 0 -24 65 c-13 36 -24 80 -24 97 0 30 0 31 20 13 11 -10 23
-15 27 -12 3 4 -6 18 -22 31 -25 22 -54 82 -55 114 0 19 24 14 38 -8 19 -31
44 -26 36 8 -12 53 -15 62 -26 62 -6 0 -6 6 2 15 11 13 10 18 -4 28 -14 10
-15 20 -8 59 5 26 8 49 6 51 -2 2 -5 107 -7 233 -3 189 -2 218 7 169 9 -46 13
-55 19 -40 8 19 9 19 18 3 15 -27 39 -22 39 7 0 15 7 28 17 32 12 5 3 11 -33
23 l-49 17 81 -5 c74 -4 82 -3 109 20 l28 25 -31 64 c-21 44 -31 57 -31 41 -1
-36 -29 -92 -45 -92 -9 0 -13 6 -11 13 6 17 -60 57 -95 57 -15 0 -63 7 -106
16 -55 12 -99 14 -144 10 -36 -4 -76 -8 -90 -9 -45 -3 -36 -34 17 -59 37 -17
43 -23 27 -26 -22 -3 -134 35 -134 46 0 4 -15 7 -32 8 -47 2 -93 11 -116 23
-11 6 -52 14 -91 17 -65 6 -74 10 -93 38 -12 17 -27 34 -33 38 -7 5 -6 13 3
25 12 18 18 31 27 58 6 20 76 20 180 -1 95 -18 395 -22 438 -5 46 18 91 13
128 -14 19 -13 52 -34 74 -46 22 -12 49 -29 60 -38 18 -14 18 -13 -1 9 -29 34
-37 64 -29 108 l7 37 23 -28 c13 -15 27 -27 30 -27 4 0 -5 14 -19 31 l-26 30
23 36 c22 35 22 38 8 95 -13 53 -12 62 4 97 19 44 14 111 -11 132 -8 6 -14 21
-15 33 0 11 -7 -7 -16 -41 -17 -74 -39 -87 -29 -18 4 25 5 45 2 45 -3 0 -15
-20 -27 -45 -12 -25 -23 -44 -25 -42 -2 2 14 57 36 122 22 66 40 137 40 160
-1 49 -12 33 -31 -45 -11 -47 -14 -51 -19 -30 -4 14 0 44 8 67 19 60 12 89
-12 44 l-18 -34 -20 46 c-11 26 -24 47 -29 47 -5 0 -9 10 -9 22 0 35 -12 13
-26 -49 l-14 -58 6 53 c2 29 7 58 10 65 2 7 -2 21 -10 32 -14 20 -14 20 -37 0
-19 -17 -21 -17 -16 -3 4 12 2 15 -7 12 -7 -3 -16 2 -19 10 -4 9 -3 16 1 16 4
0 13 13 19 29 6 16 25 37 43 46 29 15 33 15 49 1 10 -9 23 -16 29 -16 15 0 45
-58 38 -73 -3 -9 -5 -9 -5 0 -1 7 -11 18 -23 24 -20 10 -20 8 5 -18 15 -16 27
-37 27 -46 0 -15 3 -15 20 -5 11 7 20 22 20 33 0 35 -48 119 -80 140 -31 21
-39 35 -19 35 8 0 8 4 1 13 -12 14 0 83 17 100 6 6 11 17 11 24 0 7 11 31 25
53 34 55 31 60 -11 19 -48 -46 -72 -94 -86 -177 -9 -53 -16 -71 -32 -78 -29
-13 -66 -72 -66 -105 0 -16 -4 -29 -10 -29 -5 0 -10 7 -10 15 0 13 -19 20 -44
16 -5 -1 -6 28 -3 66 4 37 7 81 7 96 0 16 4 26 9 23 5 -4 7 2 4 12 -2 10 2 46
10 80 35 151 13 342 -53 457 -30 53 -106 131 -151 156 -38 20 -166 18 -211 -4z
m185 -178 c111 -63 136 -92 157 -182 18 -83 -24 -244 -86 -325 -22 -29 -26
-41 -22 -83 3 -32 13 -58 27 -72 27 -29 26 -33 -4 -73 -14 -18 -25 -38 -25
-45 0 -20 -32 -101 -50 -129 -10 -14 -21 -36 -25 -50 -11 -37 -65 -111 -75
-105 -5 3 -41 47 -79 98 -38 51 -88 110 -110 132 -47 45 -50 55 -18 56 12 0
16 3 10 6 -20 8 -15 29 12 49 14 10 25 26 25 35 0 9 7 19 15 23 8 3 15 1 15
-4 0 -21 20 -9 26 16 l6 25 22 -20 c28 -26 46 -27 46 -2 0 11 5 23 10 26 17
11 11 19 -35 48 -92 59 -114 99 -135 253 -14 105 -5 157 37 222 39 60 135 137
176 141 4 1 40 -17 80 -40z m147 -824 c-1 -28 -2 -28 -12 -10 -6 11 -20 28
-30 37 -19 16 -19 17 4 20 28 4 38 -8 38 -47z m-36 -34 c10 -74 -5 -99 -19
-31 -6 30 -9 61 -7 68 9 26 20 10 26 -37z m-69 -61 c3 -5 2 -10 -4 -10 -5 0
-13 5 -16 10 -3 6 -2 10 4 10 5 0 13 -4 16 -10z m312 -42 c-3 -8 -6 -5 -6 6
-1 11 2 17 5 13 3 -3 4 -12 1 -19z m-367 -137 c14 -11 23 -22 20 -24 -3 -3
-23 11 -45 30 -40 36 -22 31 25 -6z m574 -68 c-4 -21 -11 -45 -16 -53 -8 -12
-8 -11 -4 3 3 10 6 34 6 53 0 19 5 34 10 34 7 0 8 -14 4 -37z m-347 -15 c-3
-7 -5 -2 -5 12 0 14 2 19 5 13 2 -7 2 -19 0 -25z m-80 -10 c-3 -8 -6 -5 -6 6
-1 11 2 17 5 13 3 -3 4 -12 1 -19z m-247 -10 c0 -16 -3 -19 -11 -11 -6 6 -8
16 -5 22 11 17 16 13 16 -11z m435 -34 c26 -11 46 -59 35 -88 -12 -32 -39 -46
-89 -46 -30 0 -44 6 -55 22 -48 68 26 143 109 112z m156 -101 c-14 -27 -41
-49 -41 -34 0 6 6 11 13 11 9 0 9 2 0 8 -10 6 -9 13 3 31 20 28 42 14 25 -16z
m-71 -78 c-13 -14 -28 -25 -33 -25 -6 0 0 11 13 25 13 14 28 25 33 25 6 0 0
-11 -13 -25z m50 10 c-7 -8 -17 -15 -22 -15 -6 0 -5 7 2 15 7 8 17 15 22 15 6
0 5 -7 -2 -15z m-215 -612 c3 -32 9 -73 11 -90 6 -38 -11 -45 -20 -10 -3 13
-9 57 -12 97 -9 89 10 91 21 3z m112 -129 c5 -49 7 -99 5 -111 -6 -41 -20 -24
-26 32 -3 30 -9 80 -12 110 -3 31 -3 63 1 73 12 31 24 -9 32 -104z m-270 -6
c-2 -13 -4 -5 -4 17 -1 22 1 32 4 23 2 -10 2 -28 0 -40z m323 -304 c0 -8 -5
-12 -10 -9 -6 4 -8 11 -5 16 9 14 15 11 15 -7z"/>
<path d="M4152 2658 c-7 -7 -12 -27 -12 -45 0 -39 21 -53 78 -53 25 0 45 -7
55 -18 17 -19 24 -57 9 -48 -24 14 -107 -73 -97 -101 7 -24 87 -83 110 -83 10
0 15 3 11 7 -3 4 3 12 15 19 21 11 20 12 -18 19 -23 3 -49 13 -60 21 -17 13
-15 14 17 13 19 0 42 0 50 0 24 2 -7 17 -54 25 -47 9 -38 21 15 21 21 0 39 4
39 10 0 5 -10 10 -22 10 -12 0 -23 6 -26 14 -3 9 1 11 17 6 11 -3 21 -3 22 2
7 59 9 104 4 130 -5 27 -12 34 -52 47 -56 19 -85 20 -101 4z m31 -25 c-7 -2
-19 -2 -25 0 -7 3 -2 5 12 5 14 0 19 -2 13 -5z"/>
<path d="M4389 2640 c-17 -10 -15 -54 4 -77 11 -15 57 -17 57 -3 0 5 11 12 25
16 30 7 32 20 6 36 -18 11 -18 13 -3 25 15 11 11 12 -28 12 -25 0 -52 -4 -61
-9z"/>
<path d="M4418 2447 c27 -46 27 -43 2 -50 -29 -7 -25 -26 5 -23 55 6 54 36 -1
86 l-28 25 22 -38z"/>
<path d="M4190 2075 c0 -5 5 -17 10 -25 5 -8 10 -10 10 -5 0 6 -5 17 -10 25
-5 8 -10 11 -10 5z"/>
<path d="M5175 2953 c-16 -3 -21 -12 -22 -43 -2 -44 15 -60 63 -60 22 0 25 2
14 15 -13 15 -14 15 30 28 10 3 5 9 -15 18 l-30 13 28 4 c30 4 38 22 10 22
-10 0 -27 2 -38 4 -11 2 -29 2 -40 -1z"/>
<path d="M1709 2923 c-13 -16 -12 -17 4 -4 9 7 17 15 17 17 0 8 -8 3 -21 -13z"/>
<path d="M1673 2878 c-15 -20 -25 -38 -20 -38 3 0 12 11 21 25 17 26 16 35 -1
13z"/>
<path d="M5370 2829 c0 -11 5 -17 10 -14 6 3 10 13 10 21 0 8 -4 14 -10 14 -5
0 -10 -9 -10 -21z"/>
<path d="M1170 2821 c0 -6 5 -13 10 -16 6 -3 10 1 10 9 0 9 -4 16 -10 16 -5 0
-10 -4 -10 -9z"/>
<path d="M2761 2784 c0 -11 3 -14 6 -6 3 7 2 16 -1 19 -3 4 -6 -2 -5 -13z"/>
<path d="M1153 2755 c-1 -32 0 -34 18 -25 23 13 24 26 5 46 -20 19 -21 19 -23
-21z"/>
<path d="M5190 2781 c0 -5 8 -24 18 -41 13 -25 14 -34 4 -37 -17 -7 -44 -34
-38 -40 2 -3 15 1 27 8 18 9 24 9 27 0 5 -16 31 18 32 42 0 31 -29 77 -50 77
-11 0 -20 -4 -20 -9z"/>
<path d="M1615 2730 c-4 -28 -5 -54 -2 -56 3 -3 8 18 12 46 4 28 5 54 2 56 -3
3 -8 -18 -12 -46z"/>
<path d="M1764 2734 c-19 -15 -19 -15 2 -9 12 3 31 2 43 -3 19 -7 16 -9 -24
-21 -32 -9 -45 -19 -45 -31 0 -22 19 -30 71 -30 21 0 39 -4 39 -10 0 -18 28
-11 34 8 11 33 -20 89 -55 101 -41 14 -41 14 -65 -5z"/>
<path d="M2773 2735 c-9 -24 1 -27 15 -5 8 13 8 20 2 20 -6 0 -13 -7 -17 -15z"/>
<path d="M1983 2728 c-24 -11 -31 -28 -13 -28 6 0 6 -7 -1 -19 -16 -25 -5 -51
22 -51 35 0 99 22 99 34 0 17 -58 49 -76 42 -9 -3 -12 -1 -9 4 3 6 12 10 20
10 8 0 17 5 20 10 8 13 -34 12 -62 -2z"/>
<path d="M3371 2704 c0 -11 3 -14 6 -6 3 7 2 16 -1 19 -3 4 -6 -2 -5 -13z"/>
<path d="M2144 2679 c21 -94 25 -117 26 -156 0 -23 -4 -43 -8 -45 -13 -5 -72
-135 -72 -158 0 -31 24 -24 39 13 34 82 54 117 62 111 10 -6 36 49 45 94 4 22
-3 38 -35 79 -23 28 -41 58 -41 66 0 9 -5 19 -12 23 -8 5 -9 -2 -4 -27z"/>
<path d="M1593 2575 c0 -22 2 -30 4 -17 2 12 2 30 0 40 -3 9 -5 -1 -4 -23z"/>
<path d="M2900 2574 c0 -13 18 -39 27 -39 4 0 22 -10 40 -23 32 -22 83 -30 83
-12 0 6 -9 10 -19 10 -30 0 -51 11 -51 26 0 9 11 14 32 14 55 0 30 9 -74 26
-21 4 -38 3 -38 -2z"/>
<path d="M3173 2569 c-13 -4 -23 -16 -23 -25 0 -13 3 -14 15 -4 8 6 19 9 24 6
13 -8 26 13 15 24 -5 4 -19 4 -31 -1z"/>
<path d="M1833 2549 c-10 -10 -9 -15 5 -25 22 -17 65 -18 59 -1 -2 6 -14 11
-25 10 -12 -2 -22 4 -24 13 -2 12 -6 13 -15 3z"/>
<path d="M3075 2500 c-3 -6 1 -7 9 -4 18 7 21 14 7 14 -6 0 -13 -4 -16 -10z"/>
<path d="M1822 2474 c-20 -22 -14 -43 18 -59 32 -17 81 -20 108 -7 9 5 30 15
46 23 50 24 44 39 -16 40 -29 0 -74 4 -99 8 -32 5 -49 4 -57 -5z m158 -29
c-20 -24 -130 -19 -130 6 0 5 32 9 71 9 62 0 70 -2 59 -15z"/>
<path d="M5424 2445 c39 -101 47 -133 41 -170 -3 -22 -8 -62 -11 -90 -3 -27
-14 -95 -25 -149 -16 -80 -18 -101 -7 -107 7 -5 16 -5 20 -1 11 11 48 274 48
340 0 67 -19 130 -51 170 -16 20 -20 22 -15 7z"/>
<path d="M2895 2390 c3 -5 1 -10 -4 -10 -6 0 -11 -13 -11 -28 0 -34 19 -52
129 -123 81 -52 83 -54 52 -57 -36 -4 -150 -101 -118 -102 9 0 17 5 17 10 0
20 31 10 41 -13 8 -18 7 -35 -5 -72 -9 -26 -14 -50 -11 -53 2 -3 0 -11 -6 -18
-9 -11 47 -202 119 -404 4 -11 6 -10 9 5 5 23 51 210 59 240 l6 20 -16 -20
c-15 -19 -15 -17 -16 30 -1 44 -8 108 -27 222 -4 24 2 45 21 78 15 25 29 45
32 45 14 0 64 -57 64 -73 0 -10 -9 -63 -21 -118 -11 -56 -19 -103 -16 -105 6
-6 58 167 64 214 5 36 2 42 -29 65 -44 34 -106 60 -121 51 -7 -4 8 11 33 34
l45 42 -37 -21 c-34 -19 -39 -19 -53 -6 -8 9 -15 21 -15 28 0 6 -8 18 -17 25
-16 12 -16 13 9 14 49 0 39 18 -14 25 -62 9 -118 35 -136 64 -7 12 -17 21 -23
21 -5 0 -7 -4 -4 -10z m113 -522 l-4 -33 -8 28 c-5 15 -5 44 0 65 l8 37 4 -32
c2 -18 2 -48 0 -65z"/>
<path d="M3378 2248 c11 -13 30 -43 41 -68 25 -56 28 -191 6 -325 -19 -114
-19 -135 0 -135 10 0 15 10 15 28 0 15 9 81 20 147 11 66 20 139 20 162 0 62
-35 147 -76 182 -40 36 -57 41 -26 9z"/>
<path d="M4940 2254 c0 -12 9 -31 20 -44 25 -29 25 -16 0 30 -15 28 -19 31
-20 14z"/>
<path d="M2722 2234 c-53 -42 -73 -91 -66 -169 5 -64 4 -67 -26 -95 -29 -27
-30 -31 -30 -113 0 -50 4 -89 11 -92 17 -11 18 -2 7 40 -24 89 18 165 91 165
31 0 46 -7 70 -31 17 -17 34 -43 37 -57 12 -55 15 -61 30 -55 23 8 17 43 -18
100 -31 51 -57 69 -108 75 -24 3 -25 6 -25 73 0 66 3 74 38 123 51 72 48 82
-11 36z"/>
<path d="M4832 2248 c6 -18 28 -21 28 -4 0 9 -7 16 -16 16 -9 0 -14 -5 -12
-12z"/>
<path d="M2211 2143 c25 -56 30 -77 26 -122 -5 -64 -22 -82 -75 -74 -28 3 -33
2 -22 -6 24 -17 62 -13 87 11 l23 21 0 -40 c0 -22 -12 -72 -26 -109 -45 -120
-55 -157 -41 -166 6 -4 12 -6 13 -5 1 1 19 51 39 111 34 98 37 115 32 180 -4
39 -2 77 2 85 5 8 5 27 0 44 -10 36 -70 137 -81 137 -4 0 7 -30 23 -67z"/>
<path d="M2880 2195 c0 -5 5 -17 10 -25 5 -8 10 -10 10 -5 0 6 -5 17 -10 25
-5 8 -10 11 -10 5z"/>
<path d="M2046 2095 c-3 -9 -6 -22 -5 -28 0 -7 5 -1 10 12 5 13 8 26 5 28 -2
2 -6 -3 -10 -12z"/>
<path d="M1668 1982 c-11 -4 -14 -12 -9 -20 6 -9 12 -8 26 8 18 20 13 24 -17
12z"/>
<path d="M2060 1969 c0 -5 9 -9 20 -9 11 0 20 2 20 4 0 2 -9 6 -20 9 -11 3
-20 1 -20 -4z"/>
<path d="M4975 1840 c10 -11 20 -20 23 -20 3 0 -3 9 -13 20 -10 11 -20 20 -23
20 -3 0 3 -9 13 -20z"/>
<path d="M1837 1813 c-15 -15 -3 -113 14 -113 5 0 6 7 3 15 -4 10 0 15 14 15
12 0 23 4 26 8 3 5 -8 6 -24 4 -29 -4 -29 -4 -25 37 4 42 3 46 -8 34z"/>
<path d="M5366 1798 c3 -4 16 -8 29 -8 13 0 26 4 29 8 2 4 -10 8 -29 8 -19 0
-31 -4 -29 -8z"/>
<path d="M1407 1740 c3 -11 9 -20 15 -20 5 0 4 9 -2 20 -6 11 -12 20 -14 20
-2 0 -2 -9 1 -20z"/>
<path d="M5517 1683 c-9 -27 -17 -55 -17 -64 0 -9 -23 -44 -51 -79 -58 -72
-55 -91 11 -71 23 7 60 9 88 5 44 -6 49 -4 62 20 7 15 33 43 57 62 67 55 54
116 -17 81 -28 -15 -30 -14 -28 1 4 20 -38 30 -55 13 -22 -22 -29 -10 -23 34
9 59 -6 58 -27 -2z"/>
<path d="M1860 1679 c0 -5 5 -7 10 -4 6 3 10 8 10 11 0 2 -4 4 -10 4 -5 0 -10
-5 -10 -11z"/>
<path d="M1304 1576 c12 -49 -12 -70 -50 -41 -18 14 -18 14 4 8 25 -6 31 12 6
21 -26 10 -34 7 -34 -12 0 -22 38 -51 105 -81 27 -12 53 -27 58 -34 6 -9 8 -8
5 2 -2 8 -19 22 -38 32 -47 26 -59 39 -34 39 22 0 104 -65 104 -81 0 -6 -5 -7
-12 -3 -6 4 -3 -5 8 -19 29 -39 104 -62 120 -35 5 7 0 9 -14 6 -18 -5 -28 4
-57 52 -19 32 -33 64 -30 71 4 11 -7 14 -46 14 -29 0 -59 5 -68 12 -15 11 -15
13 0 28 14 14 18 14 45 -6 26 -21 26 -19 -5 14 -41 44 -77 50 -67 13z"/>
<path d="M3613 1569 c3 -9 1 -21 -5 -27 -6 -6 10 -5 37 4 61 18 72 29 21 20
-28 -5 -42 -4 -48 6 -8 10 -9 9 -5 -3z"/>
<path d="M1220 1510 c0 -13 28 -25 38 -16 3 4 0 11 -8 16 -20 13 -30 12 -30 0z"/>
<path d="M3708 1513 c7 -3 16 -2 19 1 4 3 -2 6 -13 5 -11 0 -14 -3 -6 -6z"/>
<path d="M3523 1498 c-4 -7 -8 -16 -9 -20 -1 -5 -2 -11 -3 -15 0 -4 -6 -2 -13
5 -9 9 -18 0 -40 -38 -15 -27 -28 -52 -28 -55 0 -14 29 -2 50 20 13 14 28 25
33 25 5 0 -1 -9 -14 -20 -29 -23 -12 -26 37 -5 24 10 34 20 31 29 -4 10 0 12
14 9 20 -6 25 12 11 35 -7 9 -15 6 -36 -13 -16 -14 -31 -24 -33 -21 -8 7 25
56 37 56 6 0 10 5 10 10 0 14 -37 12 -47 -2z"/>
<path d="M1266 1455 c-5 -14 13 -25 42 -25 9 0 28 -9 42 -20 14 -11 32 -20 40
-19 20 0 -10 23 -72 54 -36 18 -48 20 -52 10z"/>
<path d="M2225 1446 c-11 -6 -22 -13 -25 -16 -9 -9 -73 -32 -110 -39 -19 -4
-47 -15 -62 -25 -15 -10 -37 -16 -50 -14 -21 3 -24 -2 -30 -52 -3 -30 -6 -87
-7 -127 l-1 -72 -57 -6 c-32 -3 -70 -8 -85 -10 -16 -3 -28 0 -28 5 0 6 -7 10
-15 10 -17 0 -19 -9 -6 -29 5 -7 13 -11 18 -8 5 3 44 8 88 11 44 3 81 10 83
16 2 5 11 10 21 10 9 0 23 6 30 13 11 10 13 9 8 -5 -4 -10 -2 -18 3 -18 6 0
10 4 10 9 0 5 9 13 20 16 12 4 19 14 18 23 -3 14 8 18 60 20 35 2 69 -2 76 -7
10 -8 18 -5 32 10 15 17 18 33 16 78 -3 59 11 116 27 106 6 -3 20 8 32 25 21
28 27 30 90 30 83 0 99 14 20 18 -61 2 -104 -10 -138 -41 -25 -22 -43 -16 -24
7 7 8 11 28 9 44 -3 26 -5 28 -23 18z m-185 -190 c0 -2 3 -11 6 -20 9 -23 -9
-20 -24 4 -10 17 -10 20 3 20 8 0 15 -2 15 -4z m-42 -18 c-6 -18 -28 -21 -28
-4 0 9 7 16 16 16 9 0 14 -5 12 -12z m142 -19 c0 -5 -9 -9 -20 -9 -11 0 -20 6
-20 14 0 9 7 12 20 9 11 -3 20 -9 20 -14z"/>
<path d="M3660 1440 c-25 -11 -36 -19 -25 -19 11 0 36 8 55 19 44 24 29 24
-30 0z"/>
<path d="M2287 1313 c-10 -13 -22 -21 -27 -18 -13 8 -23 -52 -12 -71 5 -9 7
-25 4 -36 -3 -14 -1 -17 14 -11 11 3 28 12 39 20 11 7 27 13 36 13 9 0 19 7
23 15 4 10 20 15 50 15 27 0 46 5 49 13 8 21 -121 9 -161 -15 -18 -11 -36 -17
-40 -14 -10 10 23 61 37 58 7 -1 9 2 5 9 -11 18 17 29 73 29 28 0 55 5 58 11
5 7 -16 9 -62 8 -59 -2 -71 -5 -86 -26z"/>
<path d="M2785 1298 c-5 -5 -19 -15 -30 -23 l-20 -15 20 7 c18 6 18 5 6 -10
-7 -9 -9 -17 -4 -17 6 0 15 -10 20 -22 10 -21 11 -18 18 24 8 53 5 70 -10 56z"/>
<path d="M2388 1223 c7 -3 16 -2 19 1 4 3 -2 6 -13 5 -11 0 -14 -3 -6 -6z"/>
<path d="M2306 1173 c3 -15 0 -23 -13 -26 -15 -4 -15 -5 -2 -6 9 0 32 6 50 14
l34 14 -32 1 c-17 0 -34 6 -37 13 -3 6 -3 2 0 -10z"/>
<path d="M2791 1174 c0 -11 3 -14 6 -6 3 7 2 16 -1 19 -3 4 -6 -2 -5 -13z"/>
<path d="M2430 1170 c0 -5 5 -10 10 -10 6 0 10 5 10 10 0 6 -4 10 -10 10 -5 0
-10 -4 -10 -10z"/>
<path d="M2778 1138 c-3 -7 -24 -18 -49 -24 l-44 -12 41 -1 c23 -1 61 -8 84
-16 50 -18 50 -18 50 -6 0 5 -17 13 -37 18 -31 7 -37 13 -35 31 3 23 -4 30
-10 10z"/>
<path d="M5148 1133 c6 -2 18 -2 25 0 6 3 1 5 -13 5 -14 0 -19 -2 -12 -5z"/>
<path d="M2216 1105 c4 -8 11 -15 16 -15 6 0 5 6 -2 15 -7 8 -14 15 -16 15 -2
0 -1 -7 2 -15z"/>
<path d="M5273 1093 c9 -2 23 -2 30 0 6 3 -1 5 -18 5 -16 0 -22 -2 -12 -5z"/>
<path d="M2870 1059 c0 -14 5 -19 14 -16 10 4 16 -2 19 -16 3 -13 5 -7 6 16 1
31 -2 37 -19 37 -14 0 -20 -7 -20 -21z"/>
<path d="M2070 1062 c0 -6 -8 -9 -17 -7 -10 3 -4 -1 12 -9 36 -17 45 -12 22
11 -10 11 -17 13 -17 5z"/>
<path d="M1672 1042 c-24 -19 -20 -32 10 -32 13 0 18 7 18 25 0 30 1 29 -28 7z"/>
<path d="M1300 1041 c0 -5 14 -11 31 -15 49 -10 57 -6 19 9 -43 17 -50 17 -50
6z"/>
<path d="M2020 1010 c-21 -7 -17 -8 20 -9 32 0 41 2 30 9 -17 11 -16 11 -50 0z"/>
<path d="M2101 1015 c0 -14 28 -50 34 -43 3 3 -3 16 -14 29 -11 13 -20 20 -20
14z"/>
<path d="M1870 960 c0 -5 7 -10 15 -10 8 0 15 5 15 10 0 6 -7 10 -15 10 -8 0
-15 -4 -15 -10z"/>
<path d="M2130 945 c-11 -13 -9 -20 10 -40 27 -29 38 -31 46 -11 5 14 -24 65
-37 66 -4 0 -12 -7 -19 -15z"/>
<path d="M4830 830 c0 -3 7 -64 16 -135 9 -72 16 -136 17 -142 0 -7 3 -13 7
-13 7 0 5 91 -5 193 -2 32 -12 68 -20 80 -8 12 -15 19 -15 17z"/>
<path d="M4885 429 c3 -29 8 -56 11 -60 7 -12 24 -11 24 2 0 5 -4 7 -10 4 -6
-4 -10 15 -10 49 0 31 -4 56 -10 56 -6 0 -8 -21 -5 -51z"/>
<path d="M4890 298 c0 -4 4 -8 9 -8 6 0 12 4 15 8 3 5 -1 9 -9 9 -8 0 -15 -4
-15 -9z"/>
<path d="M4994 99 c-3 -6 -1 -16 5 -22 6 -6 11 -9 12 -6 0 2 2 12 4 22 4 19
-10 23 -21 6z"/>
<path d="M4901 43 c-1 -31 3 -43 13 -43 15 0 14 5 -7 70 -3 8 -6 -4 -6 -27z"/>
<path d="M5950 51 c0 -11 -3 -26 -6 -35 -5 -13 1 -16 25 -16 39 0 43 30 6 54
-24 16 -25 15 -25 -3z"/>
</g>
</svg>
